<?xml version="1.0" standalone="no"?>
<!DOCTYPE svg PUBLIC "-//W3C//DTD SVG 20010904//EN"
 "http://www.w3.org/TR/2001/REC-SVG-20010904/DTD/svg10.dtd">
<svg version="1.0" xmlns="http://www.w3.org/2000/svg"
 width="1640.000000pt" height="924.000000pt" viewBox="0 0 1640.000000 924.000000"
 preserveAspectRatio="xMidYMid meet">

<g transform="translate(0.000000,924.000000) scale(0.100000,-0.100000)"
fill="#000000" stroke="none">
<path d="M8173 6462 c-53 -8 -53 -10 -53 -500 l0 -453 25 -24 c33 -33 70 -32
106 4 l29 29 0 445 c0 427 -1 445 -20 469 -20 26 -48 36 -87 30z"/>
<path d="M7445 6378 c-27 -16 -44 -39 -45 -62 0 -32 220 -849 236 -873 31 -48
105 -37 132 19 11 24 1 71 -102 455 -101 377 -117 430 -141 450 -29 25 -50 28
-80 11z"/>
<path d="M8903 6380 c-12 -5 -27 -18 -33 -29 -15 -29 -230 -838 -230 -867 0
-30 41 -74 69 -74 34 0 69 21 80 49 25 60 221 819 221 853 0 28 -6 42 -26 57
-29 23 -46 25 -81 11z"/>
<path d="M7195 5125 c-41 -14 -180 -151 -801 -792 l-235 -241 3 -544 c3 -530
4 -544 24 -588 32 -68 88 -126 152 -157 l57 -28 1805 0 1805 0 49 24 c66 33
122 91 155 160 l26 56 2 540 3 540 -493 503 c-270 277 -505 511 -522 520 -27
15 -121 17 -1010 19 -816 2 -987 0 -1020 -12z m2348 -542 l385 -398 -493 -3
-493 -2 -4 -123 c-6 -155 -28 -219 -102 -292 -59 -59 -119 -91 -200 -106 -36
-6 -211 -9 -479 -7 l-422 3 -57 27 c-81 38 -149 105 -184 181 -25 54 -29 78
-34 187 l-5 125 -492 5 -493 5 383 397 382 396 962 1 961 1 385 -397z m-2233
-606 c0 -146 117 -330 258 -405 113 -60 130 -62 632 -61 397 0 463 2 521 17
184 48 331 214 362 408 l12 74 492 0 493 0 0 -452 c0 -285 -4 -467 -11 -491
-5 -21 -24 -53 -40 -72 -62 -71 77 -66 -1851 -63 l-1736 3 -39 31 c-21 16 -48
50 -60 74 -23 44 -23 47 -23 507 l0 463 495 0 495 0 0 -33z"/>
<path d="M9528 2009 c-28 -11 -51 -58 -42 -84 5 -11 -1 -15 -21 -15 -32 0 -29
-23 3 -28 21 -3 22 -8 22 -113 0 -102 1 -109 20 -109 19 0 20 7 20 109 l0 110
37 3 c52 4 56 28 4 28 -45 0 -56 10 -47 45 7 27 30 35 64 23 17 -6 24 -4 29 8
3 8 3 17 1 19 -11 11 -65 13 -90 4z"/>
<path d="M6682 1988 c2 -15 10 -23 23 -23 30 0 27 39 -3 43 -20 3 -23 0 -20
-20z"/>
<path d="M6810 1847 c0 -113 4 -167 12 -175 18 -18 68 -15 68 3 0 8 -8 15 -19
15 -26 0 -31 25 -31 183 0 115 -2 137 -15 137 -13 0 -15 -25 -15 -163z"/>
<path d="M7210 1835 c0 -149 2 -175 15 -175 8 0 15 7 15 15 0 8 4 15 9 15 5 0
14 -7 21 -15 8 -9 30 -15 57 -15 36 0 50 6 74 29 26 27 29 36 29 95 0 58 -3
69 -29 98 -24 27 -36 33 -70 32 -23 -1 -50 -9 -60 -18 -9 -9 -21 -16 -24 -16
-4 0 -7 29 -7 65 0 51 -3 65 -15 65 -13 0 -15 -26 -15 -175z m166 19 c20 -30
23 -99 5 -131 -13 -26 -50 -38 -87 -29 -53 14 -69 121 -23 167 29 29 84 26
105 -7z"/>
<path d="M7510 1847 c0 -176 3 -187 52 -187 34 0 39 27 6 32 -23 3 -23 6 -26
161 -2 130 -5 157 -17 157 -13 0 -15 -26 -15 -163z"/>
<path d="M8022 1988 c2 -15 10 -23 23 -23 30 0 27 39 -3 43 -20 3 -23 0 -20
-20z"/>
<path d="M10440 1835 c0 -168 1 -175 20 -175 18 0 20 7 20 84 0 100 19 136 74
136 50 0 56 -13 56 -122 0 -91 1 -98 20 -98 19 0 20 7 20 95 0 111 -11 140
-57 156 -28 9 -40 8 -73 -9 l-40 -19 0 63 c0 57 -2 64 -20 64 -19 0 -20 -7
-20 -175z"/>
<path d="M10732 1988 c2 -15 10 -23 23 -23 30 0 27 39 -3 43 -20 3 -23 0 -20
-20z"/>
<path d="M5150 1825 c0 -158 1 -165 20 -165 18 0 20 8 22 134 l3 134 83 -134
c61 -98 88 -134 102 -134 19 0 20 8 20 165 0 157 -1 165 -20 165 -18 0 -20 -8
-22 -124 l-3 -124 -78 124 c-65 103 -83 124 -103 124 l-24 0 0 -165z"/>
<path d="M10268 1943 c-2 -20 -9 -29 -25 -31 -32 -5 -30 -32 2 -32 25 0 25 0
25 -99 0 -114 6 -124 72 -119 30 2 43 7 43 18 0 11 -8 14 -28 12 -48 -6 -57
11 -57 104 l0 84 40 0 c29 0 40 4 40 15 0 11 -11 15 -40 15 -38 0 -40 2 -40
30 0 39 -27 41 -32 3z"/>
<path d="M12310 1940 c0 -25 -4 -30 -25 -30 -16 0 -25 -6 -25 -15 0 -9 9 -15
25 -15 25 0 25 0 25 -94 0 -113 10 -129 74 -124 28 2 41 8 41 18 0 11 -9 14
-32 12 -43 -4 -53 18 -53 112 l0 75 42 3 c57 4 62 26 6 30 -39 3 -43 6 -46 31
-5 38 -32 36 -32 -3z"/>
<path d="M8990 1925 c-8 -22 -12 -23 -39 -14 -22 8 -38 6 -65 -5 -57 -24 -71
-89 -29 -131 16 -16 16 -18 0 -27 -19 -10 -22 -39 -6 -55 7 -7 2 -15 -15 -27
-33 -21 -33 -56 -1 -86 20 -19 36 -23 84 -24 72 -1 114 24 119 70 5 49 -17 67
-89 72 -35 3 -67 9 -71 15 -12 19 13 37 51 37 51 0 81 29 81 80 0 21 -4 41
-10 45 -5 3 -1 14 10 25 24 24 25 36 5 44 -10 4 -19 -3 -25 -19z m-16 -67 c7
-11 7 -26 0 -45 -7 -22 -17 -29 -42 -31 -18 -2 -40 2 -48 9 -17 14 -18 61 -2
77 18 18 79 11 92 -10z m14 -204 c15 -4 16 -36 0 -52 -16 -16 -110 -16 -126 0
-19 19 -14 48 11 58 20 7 81 5 115 -6z"/>
<path d="M5563 1913 c-32 -6 -72 -51 -79 -90 -18 -94 30 -163 112 -163 25 0
54 5 65 10 49 27 66 138 29 197 -13 21 -31 35 -57 42 -21 6 -40 10 -43 10 -3
-1 -15 -4 -27 -6z m87 -53 c15 -15 20 -33 20 -75 0 -67 -22 -95 -74 -95 -46 0
-76 37 -76 95 0 58 30 95 76 95 21 0 42 -8 54 -20z"/>
<path d="M5944 1909 c-40 -12 -62 -35 -46 -51 9 -9 16 -7 31 6 28 26 95 19 99
-11 4 -25 -15 -38 -70 -48 -69 -13 -99 -71 -62 -123 18 -26 87 -31 121 -7 18
13 22 13 33 0 14 -17 60 -21 60 -5 0 5 -9 14 -20 20 -18 9 -20 21 -20 94 0 65
-4 88 -17 104 -22 25 -67 34 -109 21z m96 -126 c0 -5 -5 -24 -10 -45 -18 -64
-110 -72 -110 -10 0 23 6 32 28 40 49 19 92 26 92 15z"/>
<path d="M6462 1905 c-31 -14 -51 -40 -39 -51 3 -4 16 1 29 10 12 9 39 16 60
16 28 0 38 -5 43 -21 9 -28 -3 -39 -56 -50 -69 -16 -89 -33 -89 -78 0 -24 7
-44 18 -54 24 -22 90 -22 115 0 18 17 19 17 28 0 12 -21 59 -23 59 -2 0 8 -7
15 -15 15 -12 0 -15 15 -15 74 0 96 -13 132 -52 145 -39 14 -46 13 -86 -4z
m98 -143 c0 -43 -26 -72 -64 -72 -72 0 -71 69 1 88 59 15 63 14 63 -16z"/>
<path d="M6994 1909 c-40 -11 -62 -35 -46 -51 9 -9 16 -7 31 6 28 26 95 19 99
-11 4 -25 -15 -37 -71 -47 -21 -4 -47 -16 -58 -27 -25 -25 -25 -80 -1 -102 24
-22 90 -22 115 0 18 17 19 17 28 0 12 -21 59 -23 59 -2 0 8 -7 15 -15 15 -12
0 -15 16 -15 86 0 98 -7 118 -51 133 -36 12 -33 12 -75 0z m86 -152 c0 -50
-44 -82 -88 -66 -19 7 -23 15 -20 41 3 30 7 34 48 45 25 6 48 12 53 12 4 1 7
-14 7 -32z"/>
<path d="M7694 1906 c-48 -21 -64 -51 -64 -124 0 -57 3 -67 29 -93 25 -24 38
-29 80 -29 39 0 56 5 78 25 23 21 26 26 13 34 -10 7 -21 5 -35 -9 -44 -42
-125 -12 -125 45 0 25 1 25 85 25 l85 0 0 38 c0 49 -22 79 -68 92 -45 12 -40
12 -78 -4z m93 -38 c6 -7 13 -23 16 -35 5 -22 3 -23 -64 -23 -58 0 -69 3 -69
17 0 30 31 53 70 53 21 0 42 -6 47 -12z"/>
<path d="M8234 1910 c-12 -5 -25 -13 -29 -19 -9 -16 -25 -13 -25 4 0 8 -7 15
-15 15 -13 0 -15 -21 -15 -125 0 -118 1 -125 20 -125 19 0 20 7 20 93 0 106
11 127 67 127 39 0 43 -10 43 -126 0 -87 1 -94 20 -94 18 0 20 7 20 83 0 102
13 131 60 135 50 5 60 -15 60 -125 0 -76 3 -93 15 -93 12 0 15 19 15 108 0 97
-2 111 -20 127 -29 26 -85 25 -112 -2 -20 -21 -21 -21 -37 -3 -20 23 -59 32
-87 20z"/>
<path d="M8624 1909 c-40 -12 -62 -35 -46 -51 9 -9 16 -7 31 6 28 26 95 19 99
-11 4 -25 -15 -38 -70 -48 -69 -13 -99 -71 -62 -123 18 -26 87 -31 121 -7 18
13 22 13 33 0 14 -17 60 -21 60 -5 0 5 -9 14 -20 20 -18 9 -20 21 -20 94 0 65
-4 88 -17 104 -22 25 -67 34 -109 21z m96 -126 c0 -5 -5 -24 -10 -45 -18 -64
-110 -72 -110 -10 0 23 6 32 28 40 49 19 92 26 92 15z"/>
<path d="M9170 1914 c-41 -14 -60 -30 -75 -59 -28 -60 -17 -134 26 -174 32
-29 120 -30 149 -1 35 35 21 60 -18 30 -36 -29 -86 -26 -111 6 -12 15 -21 35
-21 45 0 17 9 19 91 19 l92 0 -6 42 c-8 63 -73 110 -127 92z m72 -51 c10 -9
18 -24 18 -35 0 -16 -9 -18 -71 -18 -68 0 -70 1 -63 23 3 12 11 28 16 35 15
17 78 15 100 -5z"/>
<path d="M9723 1913 c-32 -6 -72 -51 -79 -90 -18 -94 30 -163 112 -163 25 0
54 5 65 10 49 27 66 138 29 197 -13 21 -31 35 -57 42 -21 6 -40 10 -43 10 -3
-1 -15 -4 -27 -6z m87 -53 c15 -15 20 -33 20 -75 0 -67 -22 -95 -74 -95 -46 0
-76 37 -76 95 0 58 30 95 76 95 21 0 42 -8 54 -20z"/>
<path d="M10890 1907 c-23 -8 -38 -21 -44 -39 -14 -41 13 -74 76 -93 67 -20
82 -40 52 -69 -21 -22 -66 -20 -97 4 -21 17 -27 17 -36 6 -20 -24 32 -56 90
-56 57 0 89 24 89 68 0 41 -18 59 -80 79 -55 18 -74 43 -51 66 14 14 69 11 87
-4 22 -18 44 5 24 25 -22 21 -71 27 -110 13z"/>
<path d="M11280 1914 c-41 -14 -60 -30 -75 -59 -28 -60 -17 -134 26 -174 32
-29 120 -30 149 -1 35 35 21 60 -18 30 -36 -29 -86 -26 -111 6 -12 15 -21 35
-21 45 0 17 9 19 91 19 l92 0 -6 42 c-8 63 -73 110 -127 92z m72 -51 c10 -9
18 -24 18 -35 0 -16 -9 -18 -71 -18 -68 0 -70 1 -63 23 3 12 11 28 16 35 15
17 78 15 100 -5z"/>
<path d="M11793 1906 c-81 -36 -97 -170 -26 -226 53 -41 178 -14 159 35 -6 17
-8 17 -29 -4 -45 -41 -118 -18 -133 42 l-6 27 91 0 91 0 0 30 c0 80 -73 128
-147 96z m91 -42 c9 -8 16 -24 16 -35 0 -17 -8 -19 -70 -19 l-70 0 11 27 c6
15 16 31 22 35 21 13 75 9 91 -8z"/>
<path d="M12100 1913 c-8 -3 -25 -15 -37 -26 l-23 -20 0 21 c0 13 -6 22 -15
22 -13 0 -15 -21 -15 -125 0 -100 3 -125 14 -125 10 0 15 22 18 90 5 103 20
130 73 130 49 0 55 -14 55 -122 0 -91 1 -98 20 -98 19 0 20 7 20 104 0 84 -3
108 -17 124 -19 21 -68 35 -93 25z"/>
<path d="M6135 1893 c4 -10 25 -66 47 -125 37 -100 42 -108 67 -108 23 0 29 7
47 58 12 31 33 88 48 125 25 68 25 68 5 65 -17 -2 -29 -23 -57 -100 -20 -54
-39 -98 -43 -98 -4 0 -23 45 -44 100 -30 80 -41 100 -57 100 -15 0 -18 -4 -13
-17z"/>
<path d="M6680 1785 c0 -118 1 -125 20 -125 19 0 20 7 20 125 0 118 -1 125
-20 125 -19 0 -20 -7 -20 -125z"/>
<path d="M8020 1785 c0 -118 1 -125 20 -125 19 0 20 7 20 125 0 118 -1 125
-20 125 -19 0 -20 -7 -20 -125z"/>
<path d="M9940 1785 c0 -118 1 -125 20 -125 18 0 20 7 20 84 0 70 3 88 21 111
17 20 28 26 50 23 18 -3 30 1 34 10 8 22 7 22 -34 22 -30 0 -44 -6 -55 -22
l-16 -22 0 22 c0 15 -6 22 -20 22 -19 0 -20 -7 -20 -125z"/>
<path d="M10730 1785 c0 -118 1 -125 20 -125 19 0 20 7 20 125 0 118 -1 125
-20 125 -19 0 -20 -7 -20 -125z"/>
<path d="M11489 1788 c42 -110 50 -123 73 -126 24 -3 28 4 65 100 58 148 58
148 36 148 -15 0 -27 -23 -57 -105 -22 -58 -40 -104 -42 -102 -2 1 -20 47 -42
102 -30 78 -43 101 -59 103 -19 3 -18 -5 26 -120z"/>
</g>
</svg>
