<svg width="866" height="663" viewBox="0 0 866 663" fill="none" xmlns="http://www.w3.org/2000/svg">
<path d="M123.764 177.135H54.6347C50.9395 177.131 47.3969 175.825 44.784 173.504C42.1712 171.182 40.7014 168.035 40.6973 164.752V107.297C40.7014 104.014 42.1712 100.866 44.784 98.5449C47.3969 96.2235 50.9395 94.9178 54.6347 94.9141H123.764C127.459 94.9178 131.002 96.2235 133.615 98.5449C136.228 100.866 137.697 104.014 137.702 107.297V164.752C137.697 168.035 136.228 171.182 133.615 173.504C131.002 175.825 127.459 177.131 123.764 177.135Z" fill="white"/>
<path d="M457.147 178.125H388.017C384.322 178.121 380.78 176.815 378.167 174.494C375.554 172.173 374.084 169.025 374.08 165.742V108.287C374.084 105.004 375.554 101.857 378.167 99.5352C380.78 97.2138 384.322 95.908 388.017 95.9043H457.147C460.842 95.908 464.385 97.2138 466.998 99.5352C469.611 101.857 471.08 105.004 471.084 108.287V165.742C471.08 169.025 469.611 172.173 466.998 174.494C464.385 176.815 460.842 178.121 457.147 178.125Z" fill="white"/>
<path d="M290.567 177.953H221.437C217.742 177.949 214.2 176.644 211.587 174.322C208.974 172.001 207.504 168.853 207.5 165.57V108.115C207.504 104.832 208.974 101.685 211.587 99.3633C214.2 97.0419 217.742 95.7361 221.437 95.7324H290.567C294.262 95.7361 297.805 97.0419 300.418 99.3633C303.03 101.685 304.5 104.832 304.504 108.115V165.57C304.5 168.853 303.03 172.001 300.418 174.322C297.805 176.644 294.262 177.949 290.567 177.953Z" fill="white"/>
<path d="M123.764 305.914H54.6347C50.9395 305.91 47.3969 304.605 44.784 302.283C42.1712 299.962 40.7014 296.814 40.6973 293.531V236.076C40.7014 232.793 42.1712 229.646 44.784 227.324C47.3969 225.003 50.9395 223.697 54.6347 223.693H123.764C127.459 223.697 131.002 225.003 133.615 227.324C136.228 229.646 137.697 232.793 137.702 236.076V293.531C137.697 296.814 136.228 299.962 133.615 302.283C131.002 304.605 127.459 305.91 123.764 305.914Z" fill="white"/>
<path d="M290.456 306.408H221.326C217.631 306.405 214.088 305.099 211.475 302.777C208.863 300.456 207.393 297.309 207.389 294.026V236.57C207.393 233.287 208.863 230.14 211.475 227.818C214.088 225.497 217.631 224.191 221.326 224.188H290.456C294.151 224.191 297.693 225.497 300.306 227.818C302.919 230.14 304.389 233.287 304.393 236.57V294.026C304.389 297.309 302.919 300.456 300.306 302.777C297.693 305.099 294.151 306.405 290.456 306.408Z" fill="white"/>
<path d="M457.147 306.904H388.017C384.322 306.901 380.78 305.595 378.167 303.273C375.554 300.952 374.084 297.805 374.08 294.522V237.066C374.084 233.783 375.554 230.636 378.167 228.314C380.78 225.993 384.322 224.687 388.017 224.684H457.147C460.842 224.687 464.385 225.993 466.998 228.314C469.611 230.636 471.08 233.783 471.084 237.066V294.522C471.08 297.805 469.611 300.952 466.998 303.273C464.385 305.595 460.842 306.901 457.147 306.904Z" fill="white"/>
<path d="M123.764 434.693H54.6347C50.9395 434.69 47.3969 433.384 44.784 431.063C42.1712 428.741 40.7014 425.594 40.6973 422.311V364.855C40.7014 361.572 42.1712 358.425 44.784 356.104C47.3969 353.782 50.9395 352.476 54.6347 352.473H123.764C127.459 352.476 131.002 353.782 133.615 356.104C136.228 358.425 137.697 361.572 137.702 364.855V422.311C137.697 425.594 136.228 428.741 133.615 431.063C131.002 433.384 127.459 434.69 123.764 434.693Z" fill="white"/>
<path d="M290.456 435.188H221.326C217.631 435.184 214.088 433.878 211.475 431.557C208.863 429.235 207.393 426.088 207.389 422.805V365.349C207.393 362.066 208.863 358.919 211.475 356.598C214.088 354.276 217.631 352.97 221.326 352.967H290.456C294.151 352.97 297.693 354.276 300.306 356.598C302.919 358.919 304.389 362.066 304.393 365.349V422.805C304.389 426.088 302.919 429.235 300.306 431.557C297.693 433.878 294.151 435.184 290.456 435.188Z" fill="white"/>
<path d="M626.375 532.245L572.882 571.148C570.02 573.224 566.348 574.208 562.671 573.882C558.994 573.556 555.613 571.947 553.269 569.409L512.306 524.949C509.969 522.407 508.862 519.144 509.229 515.877C509.596 512.611 511.406 509.607 514.263 507.524L567.756 468.621C570.618 466.545 574.291 465.562 577.968 465.887C581.644 466.213 585.026 467.822 587.369 470.36L628.332 514.82C630.669 517.362 631.776 520.625 631.409 523.892C631.042 527.158 629.232 530.163 626.375 532.245Z" fill="#282135"/>
<path d="M491.79 610.385L490.752 589.638C479.925 584.497 467.85 581.781 455.574 581.727C472.469 593.999 470.358 617.655 481.813 634.158C485.43 639.281 490.298 643.615 496.056 646.84C501.815 650.064 508.316 652.095 515.079 652.783L529.217 660.474C531.157 650.865 530.73 640.997 527.963 631.549C525.197 622.101 520.159 613.298 513.195 605.747C509.241 601.545 504.707 597.802 499.7 594.607C496.314 602.54 491.79 610.385 491.79 610.385Z" fill="#F2F2F2"/>
<path d="M581.196 469.173C582.353 468.332 583.289 467.275 583.937 466.077C584.585 464.88 584.929 463.57 584.946 462.242C584.962 460.913 584.651 459.597 584.033 458.387C583.415 457.177 582.507 456.102 581.371 455.237L604.497 401.523L586.015 405.001L566.392 456.667C564.884 458.459 564.168 460.68 564.38 462.909C564.592 465.138 565.717 467.221 567.542 468.762C569.367 470.304 571.765 471.197 574.281 471.273C576.798 471.349 579.258 470.602 581.196 469.173Z" fill="#FFB8B8"/>
<path d="M571.675 410.349L592.436 333.608L601.357 311.3C602.081 309.489 603.202 307.823 604.654 306.399C606.106 304.974 607.861 303.819 609.818 302.999C611.775 302.18 613.895 301.713 616.056 301.625C618.217 301.537 620.377 301.829 622.41 302.486C625.078 303.354 627.447 304.821 629.288 306.744C631.129 308.666 632.379 310.979 632.917 313.458L635.149 323.893L593.585 453.028L593.49 453.323L566.428 451.705L571.675 410.349Z" fill="#2F2E41"/>
<path d="M655.934 282.232L609.708 365.288L580.465 453.603C642.074 464.276 719.377 487.109 724.942 454.362C721.513 363.064 710.711 333.942 688.413 294.362L655.934 282.232Z" fill="#2F2E41"/>
<path d="M614.579 648.145L600.065 648.144L593.16 598.406L614.583 598.407L614.579 648.145Z" fill="#FFB6B6"/>
<path d="M618.282 660.645L571.482 660.643V660.117C571.483 655.825 573.402 651.709 576.818 648.674C580.234 645.639 584.867 643.934 589.698 643.934H589.699L598.248 638.172L614.198 643.935L618.283 643.935L618.282 660.645Z" fill="#2F2E41"/>
<path d="M745.726 631.379L732.735 637.131L701.582 595.353L720.754 586.863L745.726 631.379Z" fill="#FFB6B6"/>
<path d="M755.314 641.1L713.428 659.647L713.164 659.176C711.01 655.335 710.661 650.89 712.194 646.82C713.727 642.75 717.018 639.388 721.341 637.473L721.342 637.472L726.1 628.927L743.268 627.764L746.925 626.145L755.314 641.1Z" fill="#2F2E41"/>
<path d="M608.149 422.252L688.182 424.741L694.166 434.615C694.166 434.615 700.434 475.011 697.224 477.863C694.014 480.715 692.409 480.715 694.014 485.705C695.619 490.696 699.768 538.381 699.768 538.381C699.768 538.381 732.83 599.307 734.435 602.872C736.04 606.437 737.645 605.011 736.04 606.437C734.618 607.799 733.279 609.227 732.027 610.715H705.87C705.87 610.715 691.785 579.151 678.893 566.942C667.509 556.162 660.299 542.432 658.316 527.756L647.47 482.14L624.199 552.01C624.199 552.01 620.186 621.167 620.989 624.732L621.791 628.297L590.961 628.603C590.961 628.603 587.751 622.593 589.356 620.454C590.961 618.316 590.864 618.899 588.906 615.399C586.948 611.899 587.751 605.968 587.751 605.968C587.751 605.968 599.322 465.742 599.322 463.604C599.382 462.503 599.154 461.405 598.655 460.396V457.493L601.729 447.206L608.149 422.252Z" fill="#2F2E41"/>
<path d="M661.351 294.55L655.903 282.971L639.043 283.234L621.463 305.328L603.01 374.273C603.01 374.273 596.382 424.636 603.01 427.295C609.638 429.954 689.892 428.539 689.892 428.539C686.176 401.341 683.406 373.672 680.488 357.144C670.842 302.517 666.289 314.013 661.351 294.55Z" fill="#282135"/>
<path d="M639.044 283.232C639.044 283.232 602.726 301.885 601.306 311.621C599.885 321.358 595.129 440.527 595.129 440.527L607.972 433.154L611.482 389.721C609.034 351.127 615.009 322.36 627.157 300.796L639.044 283.232Z" fill="#2F2E41"/>
<path d="M647.618 277.808C661.288 277.808 672.37 267.963 672.37 255.817C672.37 243.672 661.288 233.826 647.618 233.826C633.947 233.826 622.865 243.672 622.865 255.817C622.865 267.963 633.947 277.808 647.618 277.808Z" fill="#FFB8B8"/>
<path d="M678.117 254.51C677.011 258.966 675.017 263.21 672.229 267.041C671.489 268.348 670.383 269.463 669.018 270.281C668.327 270.675 667.502 270.841 666.687 270.75C665.872 270.66 665.119 270.318 664.558 269.785L663.956 269.349C665.137 268.703 666.191 267.89 667.078 266.942C667.517 266.467 667.822 265.905 667.967 265.304C668.113 264.702 668.095 264.079 667.914 263.485C667.701 262.899 667.24 262.41 666.628 262.12C666.017 261.83 665.303 261.762 664.636 261.93C663.187 262.435 662.306 264.297 660.79 264.01C659.563 263.772 659.307 262.336 659.307 261.207C659.351 255.302 656.14 246.912 653.654 247.17C651.142 247.292 648.626 246.992 646.239 246.288C643.849 245.582 641.326 245.296 638.813 245.446C638.635 245.466 638.456 245.495 638.267 245.525C637.864 244.403 637.31 243.329 636.617 242.325C636.695 243.537 636.627 244.752 636.416 245.951C634.416 246.683 632.349 247.263 630.239 247.685C627.942 247.972 622.891 254.074 622.657 253.45C622.254 252.328 621.7 251.254 621.007 250.25C621.085 251.462 621.018 252.677 620.806 253.876C620.795 253.926 620.795 253.965 620.784 254.015C619.669 252.697 618.989 251.092 619.368 252.321C615.632 244.812 617.082 239.433 622.958 233.103C624.103 231.742 625.619 230.661 627.362 229.963C628.235 229.622 629.193 229.487 630.142 229.57C631.091 229.653 632 229.952 632.781 230.438C635.178 228.486 638.118 227.139 641.298 226.536C644.478 225.933 647.782 226.097 650.866 227.011C656.988 228.903 661.704 230.012 662.641 235.718C667.703 234.995 672.91 237.551 675.697 241.365C678.335 245.32 679.199 250.014 678.117 254.51Z" fill="#2F2E41"/>
<path d="M747.476 463.746C748.032 462.513 748.277 461.186 748.194 459.86C748.111 458.533 747.701 457.239 746.994 456.068C746.287 454.897 745.299 453.878 744.101 453.083C742.902 452.288 741.523 451.736 740.058 451.466L731.133 394.506L716.836 405.477L727.716 459.141C727.369 461.357 727.948 463.609 729.345 465.47C730.741 467.332 732.858 468.674 735.294 469.241C737.729 469.809 740.314 469.563 742.56 468.55C744.805 467.538 746.554 465.828 747.476 463.746Z" fill="#FFB8B8"/>
<path d="M721.133 442.832L668.086 316.733L669.383 306.174C669.698 303.665 670.738 301.272 672.402 299.226C674.067 297.18 676.298 295.551 678.88 294.498C680.849 293.701 682.975 293.258 685.137 293.194C687.299 293.13 689.454 293.446 691.478 294.126C693.502 294.805 695.354 295.833 696.928 297.151C698.503 298.47 699.768 300.051 700.651 301.806L711.546 323.455L739.069 398.505L747.967 439.318L721.133 442.832Z" fill="#2F2E41"/>
<path d="M866.001 661.461C866.001 661.663 865.957 661.863 865.87 662.05C865.783 662.237 865.656 662.407 865.495 662.55C865.334 662.693 865.143 662.806 864.932 662.883C864.722 662.96 864.496 663 864.269 662.999H398.146C397.687 662.999 397.246 662.837 396.921 662.549C396.597 662.26 396.414 661.869 396.414 661.461C396.414 661.052 396.597 660.661 396.921 660.373C397.246 660.084 397.687 659.922 398.146 659.922H864.269C864.496 659.921 864.722 659.961 864.932 660.038C865.143 660.115 865.334 660.228 865.495 660.371C865.656 660.514 865.783 660.684 865.87 660.871C865.957 661.058 866.001 661.258 866.001 661.461Z" fill="#565656"/>
<path d="M509.503 34.1613H2.96992C2.44312 34.1513 1.94169 33.9584 1.57308 33.6238C1.20448 33.2893 0.998047 32.8398 0.998047 32.3716C0.998047 31.9035 1.20448 31.454 1.57308 31.1195C1.94169 30.7849 2.44312 30.592 2.96992 30.582H509.503C510.03 30.592 510.532 30.7849 510.9 31.1195C511.269 31.454 511.475 31.9035 511.475 32.3716C511.475 32.8398 511.269 33.2893 510.9 33.6238C510.532 33.9584 510.03 34.1513 509.503 34.1613Z" fill="#CACACA"/>
<path d="M37.4515 21.4437C43.9712 21.4437 49.2565 16.6433 49.2565 10.7218C49.2565 4.80033 43.9712 0 37.4515 0C30.9318 0 25.6465 4.80033 25.6465 10.7218C25.6465 16.6433 30.9318 21.4437 37.4515 21.4437Z" fill="#3F3D56"/>
<path d="M78.2308 21.4437C84.7505 21.4437 90.0358 16.6433 90.0358 10.7218C90.0358 4.80033 84.7505 0 78.2308 0C71.7111 0 66.4258 4.80033 66.4258 10.7218C66.4258 16.6433 71.7111 21.4437 78.2308 21.4437Z" fill="#3F3D56"/>
<path d="M119.012 21.4437C125.532 21.4437 130.817 16.6433 130.817 10.7218C130.817 4.80033 125.532 0 119.012 0C112.492 0 107.207 4.80033 107.207 10.7218C107.207 16.6433 112.492 21.4437 119.012 21.4437Z" fill="#3F3D56"/>
</svg>
