<svg width="866" height="625" viewBox="0 0 866 625" fill="none" xmlns="http://www.w3.org/2000/svg">
<g clip-path="url(#clip0_744_14755)">
<path d="M513.772 19.8707C576.043 -18.2363 655.078 1.74124 696.98 69.3101L695.553 70.4675C654.169 3.7327 576.101 -15.9933 514.596 21.6349C509.371 24.8324 504.327 28.4034 499.494 32.3265C436.246 83.6329 421.286 184.224 466.146 256.561L464.719 257.719C419.302 184.482 434.448 82.6389 498.482 30.6951C503.376 26.7241 508.482 23.1088 513.772 19.8707Z" fill="#E6E6E6"/>
<path d="M843.657 182.755L638.841 164.531C635.662 164.244 632.712 162.526 630.639 159.755C628.565 156.983 627.538 153.384 627.781 149.747L636.66 35.934C636.911 32.2978 638.413 28.9238 640.836 26.5524C643.26 24.1809 646.406 23.0057 649.586 23.2845L854.402 41.5081C857.581 41.7951 860.531 43.5128 862.605 46.2844C864.678 49.0559 865.706 52.6549 865.462 56.2919L856.583 170.105C856.332 173.742 854.83 177.116 852.407 179.487C849.984 181.858 846.837 183.034 843.657 182.755Z" fill="#E6E6E6"/>
<path d="M795.279 157.041C793.724 157.041 792.164 156.971 790.598 156.832L658.233 145.055C655.586 144.82 653.006 143.99 650.64 142.615C648.273 141.239 646.167 139.343 644.441 137.036C642.715 134.729 641.403 132.056 640.581 129.17C639.758 126.283 639.441 123.239 639.647 120.212L642.665 75.8373C643.087 69.7265 645.611 64.0565 649.683 60.0712C653.755 56.0859 659.043 54.1109 664.387 54.5795L835.551 69.809C840.894 70.2915 845.851 73.178 849.336 77.8354C852.82 82.4927 854.547 88.5406 854.137 94.6523C852.983 111.611 846.284 127.449 835.376 139.012C824.468 150.574 810.151 157.011 795.279 157.041Z" fill="white"/>
<path d="M831.455 105.086L663.662 90.1568C663.313 90.1257 662.972 90.0161 662.659 89.8344C662.347 89.6527 662.068 89.4023 661.841 89.0976C661.613 88.7929 661.439 88.4398 661.331 88.0585C661.222 87.6773 661.18 87.2752 661.207 86.8754C661.234 86.4756 661.33 86.0859 661.489 85.7284C661.648 85.3709 661.867 85.0527 662.133 84.792C662.4 84.5313 662.709 84.3332 663.042 84.2089C663.375 84.0846 663.727 84.0367 664.076 84.0678L831.869 98.9973C832.219 99.0284 832.559 99.1379 832.872 99.3197C833.184 99.5014 833.463 99.7518 833.691 100.056C833.919 100.361 834.092 100.714 834.201 101.096C834.309 101.477 834.351 101.879 834.324 102.279C834.297 102.678 834.201 103.068 834.042 103.426C833.883 103.783 833.664 104.101 833.398 104.362C833.131 104.623 832.823 104.821 832.489 104.945C832.156 105.069 831.804 105.117 831.455 105.086Z" fill="#E6E6E6"/>
<path d="M761.783 110.991L662.844 102.188C662.138 102.125 661.484 101.744 661.024 101.128C660.564 100.513 660.336 99.714 660.391 98.9068C660.446 98.0997 660.779 97.3505 661.316 96.8239C661.854 96.2974 662.553 96.0366 663.258 96.0989L762.197 104.902C762.547 104.933 762.888 105.042 763.201 105.224C763.514 105.406 763.792 105.656 764.02 105.961C764.248 106.266 764.422 106.619 764.531 107C764.639 107.382 764.681 107.784 764.654 108.184C764.627 108.584 764.531 108.974 764.372 109.331C764.213 109.689 763.994 110.007 763.727 110.268C763.461 110.529 763.152 110.727 762.818 110.851C762.485 110.975 762.133 111.023 761.783 110.991Z" fill="#E6E6E6"/>
<path d="M783.579 125.033L662.027 114.218C661.677 114.187 661.336 114.078 661.024 113.896C660.711 113.714 660.432 113.464 660.204 113.159C659.976 112.854 659.803 112.501 659.694 112.12C659.585 111.738 659.543 111.336 659.571 110.936C659.598 110.536 659.694 110.146 659.853 109.789C660.012 109.431 660.231 109.113 660.497 108.852C660.764 108.591 661.073 108.393 661.406 108.269C661.74 108.145 662.092 108.097 662.441 108.128L783.994 118.944C784.699 119.007 785.354 119.388 785.814 120.003C786.274 120.619 786.502 121.418 786.447 122.225C786.392 123.032 786.059 123.781 785.521 124.308C784.984 124.835 784.285 125.095 783.579 125.033Z" fill="#E6E6E6"/>
<path d="M829.954 337.255L625.138 319.031C621.959 318.744 619.009 317.026 616.935 314.255C614.862 311.483 613.834 307.884 614.078 304.247L622.957 190.434C623.208 186.798 624.71 183.424 627.133 181.052C629.557 178.681 632.703 177.506 635.883 177.784L840.699 196.008C843.878 196.295 846.828 198.013 848.902 200.784C850.975 203.556 852.003 207.155 851.759 210.792L842.88 324.605C842.629 328.242 841.127 331.616 838.704 333.987C836.281 336.358 833.134 337.534 829.954 337.255Z" fill="#E6E6E6"/>
<path d="M781.519 311.54C779.987 311.54 778.444 311.471 776.891 311.334L644.526 299.556C641.879 299.321 639.299 298.492 636.933 297.116C634.566 295.74 632.46 293.845 630.734 291.538C629.008 289.231 627.697 286.558 626.874 283.671C626.051 280.784 625.734 277.741 625.94 274.714L628.958 230.339C629.164 227.312 629.889 224.361 631.092 221.654C632.295 218.948 633.953 216.539 635.97 214.565C637.987 212.591 640.324 211.091 642.848 210.15C645.373 209.209 648.034 208.846 650.681 209.081L821.844 224.311C824.491 224.546 827.071 225.376 829.437 226.752C831.804 228.127 833.91 230.023 835.636 232.33C837.362 234.637 838.674 237.31 839.496 240.197C840.319 243.083 840.636 246.127 840.43 249.154C839.258 266.115 832.547 281.951 821.631 293.51C810.716 305.07 796.395 311.506 781.519 311.54Z" fill="white"/>
<path d="M817.748 259.586L649.955 244.657C649.606 244.626 649.265 244.516 648.952 244.334C648.64 244.153 648.361 243.902 648.133 243.598C647.906 243.293 647.732 242.94 647.624 242.559C647.515 242.177 647.473 241.775 647.5 241.375C647.527 240.976 647.623 240.586 647.782 240.228C647.941 239.871 648.16 239.553 648.426 239.292C648.693 239.031 649.001 238.833 649.335 238.709C649.668 238.585 650.02 238.537 650.369 238.568L818.162 253.497C818.512 253.528 818.852 253.638 819.165 253.82C819.477 254.001 819.756 254.252 819.984 254.557C820.212 254.861 820.385 255.214 820.493 255.596C820.602 255.977 820.644 256.379 820.617 256.779C820.59 257.178 820.494 257.568 820.335 257.926C820.176 258.283 819.957 258.601 819.691 258.862C819.424 259.123 819.116 259.321 818.782 259.445C818.449 259.569 818.097 259.617 817.748 259.586Z" fill="#E6E6E6"/>
<path d="M748.079 265.492L649.14 256.688C648.791 256.658 648.45 256.548 648.137 256.367C647.824 256.185 647.546 255.935 647.318 255.63C647.09 255.325 646.916 254.972 646.807 254.59C646.699 254.209 646.657 253.807 646.684 253.407C646.711 253.007 646.807 252.617 646.966 252.259C647.125 251.902 647.344 251.583 647.611 251.323C647.877 251.062 648.186 250.864 648.52 250.74C648.853 250.616 649.205 250.568 649.555 250.599L748.494 259.402C749.199 259.466 749.854 259.847 750.314 260.462C750.774 261.077 751.002 261.877 750.947 262.684C750.892 263.491 750.559 264.24 750.022 264.767C749.484 265.293 748.785 265.554 748.079 265.492Z" fill="#E6E6E6"/>
<path d="M769.875 279.533L648.322 268.718C647.616 268.655 646.961 268.274 646.501 267.658C646.04 267.043 645.812 266.244 645.867 265.436C645.922 264.629 646.256 263.879 646.794 263.353C647.332 262.826 648.031 262.566 648.737 262.628L770.289 273.444C770.995 273.506 771.65 273.887 772.111 274.503C772.571 275.118 772.799 275.918 772.744 276.725C772.689 277.533 772.356 278.282 771.818 278.809C771.28 279.335 770.581 279.596 769.875 279.533Z" fill="#E6E6E6"/>
<path d="M308.959 277.789C306.359 271.051 304.945 263.793 304.798 256.429C304.651 249.066 305.773 241.741 308.101 234.874C310.428 228.007 313.916 221.731 318.364 216.405C322.813 211.079 328.135 206.808 334.026 203.834C339.918 200.861 346.264 199.244 352.702 199.075C359.14 198.907 365.545 200.19 371.549 202.853C377.553 205.515 383.041 209.504 387.697 214.591C392.354 219.679 396.089 225.766 398.689 232.504L397.088 233.312C394.581 226.814 390.98 220.944 386.489 216.038C381.999 211.132 376.707 207.285 370.917 204.718C365.127 202.151 358.951 200.913 352.742 201.075C346.534 201.238 340.414 202.797 334.733 205.664C329.051 208.532 323.919 212.651 319.629 217.787C315.34 222.923 311.976 228.975 309.732 235.597C307.487 242.219 306.405 249.282 306.547 256.383C306.689 263.484 308.052 270.483 310.559 276.981L308.959 277.789Z" fill="#E6E6E6"/>
<path d="M817.265 590.57C837.288 579.719 852.202 557.886 849.876 533.893C831.913 550.529 807.456 559.818 782.209 559.596C772.376 559.51 761.363 558.365 754.217 564.676C749.771 568.603 747.765 574.838 747.512 581.052C747.259 587.266 748.576 593.556 749.886 599.763L749.487 601.234C772.997 602.946 797.243 601.422 817.265 590.57Z" fill="#F2F2F2"/>
<path d="M849.383 533.833C841.639 551.115 828.213 565.519 811.527 573.95C807.871 575.901 803.978 577.21 799.98 577.83C795.909 578.317 791.795 577.702 787.97 576.035C784.343 574.547 780.769 572.608 776.923 572.019C775.04 571.718 773.123 571.855 771.287 572.421C769.452 572.987 767.735 573.971 766.239 575.313C762.685 578.474 760.565 582.848 758.644 587.212C756.512 592.056 754.374 597.13 750.198 600.431C749.692 600.831 750.397 601.663 750.902 601.264C758.168 595.52 759.217 585.132 764.99 578.175C766.348 576.418 768.036 575.036 769.928 574.132C771.819 573.228 773.865 572.824 775.912 572.953C779.837 573.284 783.525 575.28 787.187 576.818C790.91 578.5 794.904 579.249 798.902 579.016C802.932 578.61 806.879 577.463 810.589 575.618C818.657 571.777 826.125 566.462 832.702 559.881C839.968 552.694 845.967 543.985 850.375 534.223C850.642 533.626 849.649 533.24 849.383 533.833Z" fill="white"/>
<path d="M817.117 571.516C819.224 574.36 822.055 576.382 825.214 577.3C828.373 578.219 831.704 577.988 834.744 576.641C835.327 576.36 834.851 575.384 834.267 575.664C831.439 576.924 828.337 577.139 825.397 576.278C822.457 575.417 819.827 573.523 817.877 570.864C817.467 570.294 816.709 570.95 817.117 571.516Z" fill="white"/>
<path d="M789.73 577.029C790.118 573.654 791.127 570.41 792.69 567.512C794.252 564.615 796.334 562.128 798.798 560.217C799.302 559.815 798.597 558.983 798.094 559.384C795.534 561.379 793.373 563.971 791.753 566.991C790.133 570.01 789.091 573.388 788.695 576.902C788.623 577.571 789.659 577.695 789.73 577.029Z" fill="white"/>
<path d="M838.782 551.962C837.819 551.115 837.061 550.002 836.58 548.726C836.099 547.451 835.911 546.057 836.034 544.675C836.114 544.007 835.078 543.884 834.998 544.547C834.869 546.074 835.078 547.613 835.606 549.023C836.135 550.433 836.965 551.668 838.022 552.614C838.117 552.721 838.241 552.788 838.374 552.805C838.507 552.821 838.641 552.786 838.754 552.704C838.803 552.661 838.843 552.606 838.871 552.543C838.9 552.48 838.916 552.411 838.919 552.34C838.921 552.27 838.911 552.199 838.887 552.134C838.863 552.068 838.827 552.01 838.782 551.962Z" fill="white"/>
<path d="M783.817 483.164C783.755 483.579 783.693 483.993 783.624 484.411C782.767 489.968 781.458 495.421 779.714 500.7C779.585 501.11 779.449 501.524 779.309 501.929C774.899 514.709 768.191 526.288 759.621 535.917C756.13 539.851 752.365 543.453 748.362 546.687C742.782 551.203 736.343 555.615 732.812 561.698C732.438 562.326 732.102 562.983 731.809 563.664L747.716 600.476C747.792 600.544 747.861 600.616 747.937 600.685L748.508 602.179C748.729 602.026 748.955 601.863 749.176 601.71C749.305 601.622 749.43 601.526 749.559 601.438C749.643 601.376 749.728 601.315 749.808 601.265C749.836 601.244 749.864 601.224 749.885 601.206C749.965 601.156 750.034 601.101 750.106 601.053C751.371 600.143 752.63 599.221 753.885 598.288C753.893 598.285 753.893 598.285 753.898 598.274C763.439 591.138 772.414 583.074 779.787 573.771C780.009 573.491 780.238 573.208 780.453 572.911C783.73 568.73 786.665 564.214 789.222 559.42C790.599 556.813 791.843 554.117 792.948 551.346C795.784 544.186 797.464 536.498 797.908 528.654C798.806 512.942 794.731 496.695 784.599 484.118C784.34 483.796 784.084 483.483 783.817 483.164Z" fill="#F2F2F2"/>
<path d="M783.41 483.414C787.841 502.848 786.314 523.344 778.812 540.784C777.252 544.657 775.102 548.182 772.464 551.195C769.637 554.158 766.163 556.19 762.409 557.078C758.813 558.052 754.989 558.612 751.761 560.484C750.177 561.391 748.803 562.713 747.752 564.344C746.7 565.975 746.001 567.867 745.712 569.866C744.922 574.738 745.924 579.755 747.068 584.641C748.339 590.065 749.742 595.686 748.569 601.062C748.427 601.713 749.447 601.984 749.589 601.334C751.629 591.981 746.266 582.524 746.471 573.062C746.566 568.648 747.973 564.345 751.557 561.899C754.692 559.759 758.634 559.178 762.286 558.225C765.975 557.406 769.434 555.566 772.358 552.866C775.144 550.023 777.431 546.599 779.097 542.776C782.914 534.355 785.368 525.214 786.339 515.794C787.504 504.864 786.84 493.78 784.383 483.133C784.23 482.462 783.258 482.747 783.41 483.414Z" fill="white"/>
<path d="M781.556 535.271C788.1 537.616 795.042 534.811 797.786 528.749C798.056 528.152 797.122 527.617 796.851 528.215C794.281 533.894 787.856 536.441 781.739 534.249C781.095 534.019 780.915 535.042 781.556 535.271Z" fill="white"/>
<path d="M764.316 556.835C762.64 553.943 761.496 550.693 760.953 547.28C760.409 543.868 760.477 540.365 761.153 536.983C761.293 536.331 760.273 536.06 760.134 536.711C759.437 540.232 759.373 543.879 759.945 547.429C760.518 550.98 761.715 554.36 763.465 557.365C763.808 557.977 764.657 557.444 764.316 556.835Z" fill="white"/>
<path d="M786.2 505.327C784.915 505.161 783.678 504.673 782.577 503.898C781.475 503.122 780.537 502.079 779.829 500.841C779.494 500.226 778.645 500.76 778.978 501.372C779.766 502.735 780.803 503.887 782.018 504.746C783.234 505.606 784.598 506.153 786.016 506.349C786.298 506.388 786.561 506.275 786.618 505.975C786.634 505.826 786.599 505.676 786.521 505.556C786.444 505.436 786.329 505.354 786.2 505.327Z" fill="white"/>
<path d="M817.586 329.198L805.416 255.102L781.525 219.137L763.82 232.376C766.322 247.895 785.247 276.867 785.247 276.867L802.02 334.171C801.953 334.469 801.891 334.77 801.846 335.079C801.58 336.892 801.727 338.753 802.274 340.481C802.82 342.21 803.747 343.748 804.966 344.948C806.184 346.147 807.652 346.966 809.228 347.327C810.804 347.687 812.435 347.577 813.963 347.006C815.491 346.435 816.864 345.423 817.95 344.068C819.036 342.713 819.798 341.06 820.162 339.27C820.526 337.479 820.481 335.612 820.029 333.847C819.578 332.083 818.736 330.482 817.586 329.198Z" fill="#FFB8B8"/>
<path d="M764.297 240.205L784.342 221.598L784.38 221.5C788.129 211.784 779.805 195.123 772.162 182.858C769.639 178.816 765.868 176.021 761.611 175.037C757.355 174.053 752.931 174.954 749.233 177.558C746.517 179.5 744.33 182.273 742.919 185.562C741.508 188.851 740.93 192.526 741.25 196.171L742.936 214.733L764.297 240.205Z" fill="#3F3D56"/>
<path d="M693.455 608.954L680.118 608.953L673.773 550.117L693.458 550.118L693.455 608.954Z" fill="#FFB8B8"/>
<path d="M696.856 603.973L693.102 603.973L678.446 597.156L670.591 603.972H670.59C666.151 603.972 661.893 605.989 658.754 609.579C655.615 613.169 653.852 618.038 653.852 623.116V623.738L696.855 623.74L696.856 603.973Z" fill="#2F2E41"/>
<path d="M752.631 608.954L739.294 608.953L732.949 550.117L752.633 550.118L752.631 608.954Z" fill="#FFB8B8"/>
<path d="M756.036 603.973L752.282 603.973L737.626 597.156L729.771 603.972H729.77C725.33 603.972 721.073 605.989 717.934 609.579C714.795 613.169 713.032 618.038 713.031 623.116V623.738L756.035 623.74L756.036 603.973Z" fill="#2F2E41"/>
<path d="M772.969 355.527C772.969 355.527 774.526 376.9 770.633 397.384C766.739 417.867 766.739 475.554 766.739 475.554L758.174 587.965L732.478 585.293L725.47 397.384L700.553 460.614L702.889 469.52L699.777 471.746C699.777 471.746 702.11 489.112 700.553 489.112C698.996 489.112 695.102 491.784 695.102 491.784L698.217 583.512L671.742 582.622L662.398 453.489L672.521 379.572L673.3 365.323L676.804 365.488L678.588 359.534L681.865 349.293L772.969 355.527Z" fill="#2F2E41"/>
<path d="M774.314 360.018L774.453 359.795C781.865 347.927 770.718 319.409 769.036 315.275L776.118 312.647L774.523 297.144L773.768 290.232L779.18 284.042L779.195 283.888L782.31 252.718L786.838 232.015C788.545 224.189 788.399 215.984 786.417 208.243C784.435 200.502 780.687 193.504 775.559 187.967L765.091 176.679L752.369 155.15H731.854L724.82 170.347C718 172.149 711.949 176.631 707.722 183.012C703.494 189.392 701.357 197.266 701.684 205.263L703.278 245.118L697.037 294.741L697.033 303.722L690.01 312.649L691.544 321.42L686.198 324.04L683.838 336.636C682.861 338.11 676.414 347.942 676.414 350.63C676.414 351.034 676.675 351.424 677.233 351.856C681.627 355.259 705.912 362.196 716.66 357.277C728.109 352.042 773.619 359.896 774.078 359.976L774.314 360.018Z" fill="#3F3D56"/>
<path d="M595.91 623.378C595.909 623.692 596.018 623.994 596.212 624.217C596.406 624.441 596.669 624.567 596.944 624.568H842.021C842.297 624.568 842.562 624.442 842.757 624.219C842.952 623.996 843.062 623.693 843.062 623.378C843.062 623.062 842.952 622.759 842.757 622.536C842.562 622.313 842.297 622.188 842.021 622.188H596.951C596.676 622.187 596.411 622.311 596.216 622.532C596.021 622.754 595.911 623.056 595.91 623.37V623.378Z" fill="#565656"/>
<path d="M739.463 148.2C754.468 148.2 766.633 134.287 766.633 117.125C766.633 99.9633 754.468 86.0508 739.463 86.0508C724.457 86.0508 712.293 99.9633 712.293 117.125C712.293 134.287 724.457 148.2 739.463 148.2Z" fill="#FFB8B8"/>
<path d="M736.86 148.704C741.068 148.655 745.264 148.195 749.404 147.329C753.502 146.249 762.543 138.253 765.007 133.529C766.838 130.02 767.936 124.591 768.536 120.655C769.346 115.446 769.19 110.101 768.078 104.966C766.967 99.8303 764.925 95.0191 762.084 90.8437C760.989 89.0945 759.501 87.7163 757.777 86.8548C757.625 86.7918 757.468 86.7366 757.31 86.69C754.812 86.0165 752.546 84.5044 750.805 82.3476C750.467 81.911 750.101 81.5028 749.712 81.1261C747.758 79.3371 745.462 78.1022 743.011 77.5226C739.052 76.435 733.388 77.7978 726.177 81.5766C722.555 83.4752 718.534 82.9455 715.435 82.272C715.261 82.2389 715.083 82.2584 714.918 82.3286C714.753 82.3988 714.606 82.5172 714.494 82.672C713.214 84.1186 711.504 84.9576 709.705 85.0206C708.605 85.1085 707.489 86.887 706.143 89.203C705.838 89.7287 705.482 90.3423 705.223 90.7167L705.172 90.0135L704.566 90.8175C703.615 92.0812 702.958 93.5997 702.658 95.2316C702.358 96.8636 702.423 98.5559 702.849 100.151C703.274 101.746 704.046 103.192 705.092 104.354C706.137 105.517 707.423 106.357 708.829 106.798C709.945 107.103 711.085 107.276 712.232 107.316C712.927 107.367 713.646 107.419 714.336 107.535C716.554 107.987 718.631 109.088 720.366 110.732C722.1 112.376 723.432 114.507 724.232 116.915C724.421 117.472 724.719 117.972 725.103 118.375C725.488 118.779 725.948 119.077 726.449 119.245C726.95 119.413 727.478 119.447 727.992 119.345C728.507 119.243 728.994 119.006 729.415 118.655C730.117 117.996 730.948 117.541 731.836 117.329C732.725 117.116 733.645 117.153 734.519 117.435C735.279 117.89 735.879 118.629 736.219 119.529C736.629 120.531 737.292 121.37 738.121 121.939C740.95 123.503 741.307 130.79 740.442 136.898C739.608 142.787 737.793 147.082 736.029 147.344C734.671 147.545 734.517 147.66 734.425 147.939L734.343 148.188L734.501 148.414C735.26 148.704 736.065 148.803 736.86 148.704Z" fill="#2F2E41"/>
<path d="M438.559 293.738C461.255 293.738 479.653 272.696 479.653 246.738C479.653 220.781 461.255 199.738 438.559 199.738C415.863 199.738 397.465 220.781 397.465 246.738C397.465 272.696 415.863 293.738 438.559 293.738Z" fill="#ACACAC"/>
<path d="M730.602 237.89L712.781 224.855C701.433 233.833 686.097 265.458 686.097 265.458L647.283 306.47C645.666 306.787 644.151 307.586 642.89 308.786C641.628 309.986 640.666 311.545 640.099 313.306C639.532 315.067 639.38 316.967 639.66 318.816C639.939 320.665 640.64 322.397 641.69 323.838C642.741 325.279 644.105 326.378 645.645 327.025C647.186 327.671 648.848 327.842 650.464 327.52C652.08 327.199 653.594 326.396 654.853 325.192C656.111 323.989 657.071 322.427 657.634 320.665L711.728 277.565L730.602 237.89Z" fill="#FFB8B8"/>
<path d="M728.901 243.181L740.77 210.601L736.477 192.596C735.623 189.065 733.922 185.878 731.567 183.394C729.212 180.91 726.297 179.23 723.151 178.541C718.88 177.641 714.47 178.629 710.813 181.306C707.155 183.983 704.522 188.148 703.447 192.96C700.196 207.556 697.699 226.531 704.265 234.04L704.332 234.116L728.901 243.181Z" fill="#3F3D56"/>
<path d="M37.7114 605.718C14.4782 592.079 -2.37792 565.722 1.14621 537.557C21.7641 557.922 50.2708 569.91 80.0198 570.726C91.6066 571.044 104.617 570.167 112.829 577.906C117.939 582.722 120.098 590.153 120.194 597.484C120.289 604.816 118.532 612.169 116.787 619.425L117.208 621.175C89.4572 622.187 60.9445 619.356 37.7114 605.718Z" fill="#F2F2F2"/>
<path d="M1.72791 537.507C10.2863 558.197 25.6326 575.739 45.0138 586.384C49.257 588.839 53.8001 590.546 58.4893 591.448C63.2694 592.195 68.1362 591.646 72.6966 589.846C77.0172 588.247 81.2915 586.117 85.8415 585.587C88.0696 585.313 90.323 585.556 92.4671 586.301C94.6111 587.046 96.6017 588.278 98.3198 589.924C102.403 593.799 104.757 599.042 106.878 604.265C109.232 610.063 111.584 616.131 116.396 620.199C116.979 620.692 116.122 621.642 115.54 621.149C107.168 614.072 106.272 601.791 99.6971 593.348C96.6293 589.408 92.3011 586.476 87.0012 586.73C82.3667 586.952 77.9573 589.146 73.5936 590.801C69.1529 592.623 64.4224 593.336 59.7207 592.891C54.9861 592.241 50.3744 590.72 46.0637 588.388C36.6851 583.519 28.0608 576.939 20.5279 568.905C12.2028 560.128 5.42092 549.613 0.547043 537.924C0.25141 537.21 1.4342 536.797 1.72791 537.507Z" fill="white"/>
<path d="M38.5093 583.276C33.4161 589.919 24.4521 592.166 17.5765 588.56C16.8991 588.204 17.4916 587.074 18.1699 587.43C21.46 589.035 25.1073 589.42 28.5989 588.531C32.0904 587.643 35.2505 585.525 37.6348 582.475C38.1358 581.821 39.0075 582.626 38.5093 583.276Z" fill="white"/>
<path d="M70.5878 590.941C70.2412 586.947 69.159 583.083 67.4126 579.603C65.6662 576.122 63.2951 573.104 60.4554 570.748C59.8742 570.252 60.7314 569.302 61.3118 569.797C64.2622 572.256 66.7234 575.402 68.5333 579.029C70.3431 582.655 71.4605 586.678 71.8118 590.834C71.8743 591.626 70.65 591.728 70.5878 590.941Z" fill="white"/>
<path d="M13.6268 559.314C14.7888 558.358 15.7179 557.079 16.3262 555.597C16.9344 554.115 17.2016 552.48 17.1024 550.847C17.0299 550.057 18.2543 549.956 18.3263 550.741C18.4288 552.545 18.1321 554.35 17.4636 555.988C16.795 557.627 15.7762 559.046 14.5013 560.115C14.3856 560.237 14.2371 560.311 14.08 560.325C13.9229 560.338 13.7663 560.291 13.6359 560.19C13.5795 560.137 13.5339 560.07 13.5024 559.995C13.4708 559.92 13.454 559.838 13.4532 559.754C13.4523 559.671 13.4674 559.588 13.4974 559.512C13.5274 559.436 13.5716 559.369 13.6268 559.314Z" fill="white"/>
<path d="M80.623 480.615C80.6822 481.106 80.7414 481.597 80.8096 482.092C81.6374 488.675 83.0014 495.155 84.8837 501.448C85.0214 501.937 85.1684 502.43 85.3199 502.913C90.0987 518.157 97.6219 532.084 107.403 543.793C111.387 548.576 115.706 552.981 120.316 556.962C126.741 562.52 134.183 567.992 138.144 575.31C138.564 576.065 138.938 576.853 139.261 577.668L119.32 620.354C119.228 620.431 119.145 620.513 119.053 620.591L118.331 622.327C118.076 622.137 117.815 621.935 117.56 621.745C117.411 621.636 117.267 621.518 117.118 621.408C117.02 621.333 116.923 621.256 116.83 621.194C116.797 621.169 116.765 621.143 116.741 621.122C116.648 621.059 116.569 620.991 116.486 620.932C115.026 619.806 113.572 618.666 112.124 617.513C112.115 617.509 112.115 617.509 112.11 617.496C101.102 608.682 90.7937 598.799 82.4117 587.525C82.1596 587.185 81.8981 586.843 81.6551 586.484C77.9308 581.419 74.6205 575.973 71.7658 570.217C70.2285 567.087 68.8507 563.857 67.6395 560.545C64.5326 551.99 62.8043 542.862 62.5379 533.603C61.9925 515.055 67.3237 496.089 79.6697 481.706C79.9858 481.338 80.2976 480.979 80.623 480.615Z" fill="#F2F2F2"/>
<path d="M81.0966 480.928C75.2422 503.632 76.3714 527.843 84.64 548.708C86.3517 553.337 88.7688 557.582 91.7786 561.244C95.0113 564.854 99.0378 567.397 103.431 568.603C107.636 569.904 112.122 570.727 115.864 573.07C117.7 574.206 119.275 575.823 120.461 577.789C121.646 579.755 122.408 582.014 122.683 584.381C123.455 590.154 122.111 596.022 120.603 601.728C118.929 608.064 117.093 614.626 118.299 621.009C118.445 621.782 117.234 622.058 117.089 621.286C114.991 610.181 121.617 599.269 121.685 588.114C121.717 582.909 120.2 577.781 116.057 574.746C112.435 572.092 107.81 571.239 103.539 569.96C99.2191 568.837 95.2054 566.522 91.8481 563.216C88.6588 559.748 86.0765 555.617 84.2394 551.043C80.0173 540.96 77.4256 530.086 76.5895 518.947C75.5739 506.021 76.7176 492.993 79.9595 480.556C80.1617 479.771 81.2975 480.149 81.0966 480.928Z" fill="white"/>
<path d="M81.5863 542.098C73.8005 544.581 65.7137 540.979 62.6792 533.721C62.3803 533.006 63.4984 532.415 63.7978 533.131C66.6406 539.932 74.1257 543.207 81.4038 540.886C82.1697 540.642 82.3479 541.855 81.5863 542.098Z" fill="white"/>
<path d="M101.193 568.237C103.261 564.903 104.715 561.122 105.467 557.126C106.219 553.129 106.253 548.999 105.566 544.987C105.423 544.213 106.633 543.937 106.777 544.71C107.483 548.888 107.439 553.186 106.649 557.344C105.858 561.502 104.337 565.433 102.178 568.898C101.754 569.605 100.771 568.94 101.193 568.237Z" fill="white"/>
<path d="M77.0944 506.626C78.6135 506.485 80.0867 505.962 81.4092 505.096C82.7317 504.23 83.8709 503.04 84.7456 501.613C85.1606 500.902 86.1428 501.567 85.7305 502.274C84.7583 503.847 83.4987 505.159 82.039 506.12C80.5793 507.08 78.9544 507.666 77.2769 507.837C76.9439 507.871 76.638 507.726 76.5805 507.37C76.5669 507.194 76.6125 507.019 76.7081 506.881C76.8036 506.742 76.9418 506.651 77.0944 506.626Z" fill="white"/>
<path d="M150.91 266.68L152.661 285.245L151.631 309.589L198.777 303.183L203.207 266.68L197.563 266.743L150.91 266.68Z" fill="#FFB6B6"/>
<path d="M126.457 603.738H136.765L141.671 558.266H126.457V603.738Z" fill="#FFB6B6"/>
<path d="M123.092 595.663L139.56 594.539V602.609L155.216 614.975C155.99 615.586 156.572 616.463 156.878 617.48C157.185 618.496 157.199 619.597 156.92 620.623C156.64 621.649 156.081 622.546 155.324 623.183C154.567 623.82 153.652 624.164 152.712 624.164H133.106L129.727 616.182L128.408 624.164H121.016L123.092 595.663Z" fill="#2F2E41"/>
<path d="M184.355 603.738H194.663L199.568 558.266H184.355V603.738Z" fill="#FFB6B6"/>
<path d="M180.991 595.663L197.458 594.539V602.609L213.115 614.975C213.888 615.586 214.47 616.463 214.777 617.48C215.083 618.496 215.098 619.597 214.818 620.623C214.538 621.649 213.979 622.546 213.222 623.183C212.465 623.82 211.55 624.164 210.61 624.164H191.005L187.626 616.182L186.306 624.164H178.914L180.991 595.663Z" fill="#2F2E41"/>
<path d="M122.01 564.523H122.122L124.105 490.588C122.822 487.758 122.171 484.609 122.209 481.421C122.248 478.233 122.975 475.106 124.326 472.318L124.61 471.73L123.874 467.829C122.929 462.817 123.363 457.592 125.116 452.873L126.965 383.905C120.358 334.932 151.845 302.994 151.845 302.994H199.013L209.14 342.786C215.834 417.381 214.62 490.072 203.996 560.496L204.286 560.664C205.329 561.076 205.776 562.728 205.285 564.354C204.794 565.981 203.551 566.966 202.508 566.554L177.598 565.563C176.555 565.152 176.108 563.499 176.599 561.873C177.09 560.246 178.333 559.261 179.376 559.673L181.07 560.653L177.458 489.308L177.858 476.276L177.033 461.492L173.214 394.993L158.762 476.768L143.999 565.346C144.406 565.768 144.692 566.321 144.819 566.932C144.945 567.544 144.907 568.184 144.708 568.77C144.51 569.356 144.161 569.859 143.707 570.214C143.254 570.568 142.717 570.757 142.168 570.755H122.01C121.652 570.755 121.297 570.675 120.966 570.519C120.635 570.363 120.334 570.133 120.081 569.844C119.827 569.555 119.626 569.211 119.489 568.833C119.352 568.454 119.281 568.049 119.281 567.639C119.281 567.229 119.352 566.824 119.489 566.445C119.626 566.067 119.827 565.723 120.081 565.434C120.334 565.145 120.635 564.915 120.966 564.759C121.297 564.603 121.652 564.523 122.01 564.523Z" fill="#2F2E41"/>
<path d="M159.143 171.679C173.116 171.679 184.443 158.725 184.443 142.744C184.443 126.763 173.116 113.809 159.143 113.809C145.171 113.809 133.844 126.763 133.844 142.744C133.844 158.725 145.171 171.679 159.143 171.679Z" fill="#FFB6B6"/>
<path d="M48.2794 276.424C51.8351 266.983 56.7178 258.271 62.734 250.634C57.6395 259.92 54.7281 270.554 54.2815 281.504C56.1259 282.822 58.0557 283.977 60.0541 284.958C66.0597 287.838 72.463 289.484 78.9689 289.817C82.4755 276.456 88.5279 264.149 96.6907 253.783C90.808 264.513 87.8496 277.002 88.1923 289.66C95.4489 288.943 102.599 287.19 109.475 284.443C119.8 280.381 129.821 274.314 136.962 264.878C144.689 254.665 148.498 241.188 149.728 227.752C150.957 214.327 149.801 200.776 148.635 187.341C148.085 180.938 152.747 173.57 152.196 167.167H151.829C149.379 163.325 146.883 159.389 145.68 154.833C144.487 150.288 144.799 144.925 147.543 141.345C149.081 139.475 151.021 138.1 153.169 137.357C153.371 137.063 153.591 136.78 153.821 136.496C157.976 131.448 162.867 127.264 168.275 124.131C164.375 127.501 161.768 131.311 160.557 135.247C163.934 134.397 167.312 133.55 170.689 132.707C171.818 131.338 173.006 130.034 174.25 128.802C176.058 127.007 176.654 126.871 178.811 125.181C177.07 126.933 175.72 129.135 174.874 131.605C179.215 130.356 183.556 128.477 185.814 124.205C189.558 117.141 185.107 107.61 178.894 103.39C174.374 100.47 169.166 99.2488 164.007 99.8987C158.847 100.549 153.996 103.037 150.141 107.012C141.156 99.4436 128.362 99.5696 118.368 105.227C111.77 109.129 106.086 114.784 101.793 121.717C104.284 121.352 106.79 121.152 109.301 121.119C105.767 121.71 102.402 123.234 99.4715 125.569C98.1752 127.871 96.9865 130.25 95.9106 132.696C95.2039 134.302 94.5371 135.929 93.9099 137.577C90.0645 147.591 87.5591 158.255 84.9618 168.794C81.9333 181.074 78.6845 193.439 73.0127 204.429C64.3166 221.14 50.5985 233.658 34.4213 239.644C33.0722 253.531 39.0008 267.114 48.2794 276.424Z" fill="#2F2E41"/>
<path d="M184.62 191.03L179.71 188.921L173.518 177.471L151.463 179.532L146.102 191.81L133.188 203.089L138.835 237.108L147.609 278.429L206.345 270.032L206.283 238.926C206.283 238.926 216.897 214.35 199.752 205.141L184.62 191.03Z" fill="#282135"/>
<path d="M275.154 298.93C274.014 299.454 272.787 299.685 271.56 299.607C270.333 299.53 269.136 299.146 268.053 298.482C266.97 297.819 266.028 296.891 265.292 295.766C264.556 294.64 264.045 293.344 263.795 291.969L198.305 246.646L210.275 230.85L270.886 280.368C272.935 280.04 275.017 280.583 276.739 281.894C278.461 283.205 279.703 285.193 280.229 287.481C280.755 289.769 280.529 292.198 279.593 294.308C278.658 296.418 277.078 298.063 275.154 298.93Z" fill="#FFB6B6"/>
<path d="M176.483 225.154C176.483 225.154 173.353 228.756 181.206 234.678C187.493 239.419 215.536 262.848 225.477 266.554C225.353 268.224 225.718 269.894 226.514 271.301C227.311 272.708 228.494 273.771 229.878 274.324L238.879 251.702C236.93 246.53 233.814 247.728 232.174 248.9L221.304 239.55L194.61 209.064L178.705 222.505L176.483 225.154Z" fill="#282135"/>
<path d="M150.301 107.799C147.26 112.931 145.295 118.796 144.56 124.939C143.825 131.081 144.339 137.335 146.062 143.213" fill="#FD6584"/>
<path d="M21.9492 623.378C21.9488 623.534 21.9755 623.689 22.0276 623.833C22.0798 623.978 22.1564 624.109 22.2531 624.22C22.3498 624.331 22.4647 624.418 22.5911 624.478C22.7175 624.537 22.853 624.568 22.9898 624.568H268.06C268.336 624.568 268.601 624.442 268.796 624.219C268.991 623.996 269.101 623.693 269.101 623.378C269.101 623.062 268.991 622.759 268.796 622.536C268.601 622.313 268.336 622.188 268.06 622.188H22.9898C22.853 622.187 22.7175 622.217 22.5911 622.277C22.4647 622.337 22.3498 622.424 22.2531 622.535C22.1564 622.646 22.0798 622.777 22.0276 622.922C21.9755 623.066 21.9488 623.221 21.9492 623.378Z" fill="#565656"/>
<path d="M115.32 352.904C114.71 353.15 114.209 353.663 113.929 354.331C113.648 354.998 113.611 355.766 113.824 356.465L147.968 469.015C148.183 469.714 148.632 470.286 149.215 470.607C149.799 470.928 150.47 470.97 151.081 470.726L349.75 391.004C350.361 390.758 350.861 390.245 351.142 389.578C351.422 388.91 351.46 388.142 351.246 387.443L317.102 274.893C316.887 274.194 316.439 273.622 315.855 273.301C315.271 272.981 314.6 272.938 313.989 273.182L115.32 352.904Z" fill="#E6E6E6"/>
<path d="M165.605 454.482C161.696 454.481 157.882 453.095 154.689 450.514C151.496 447.934 149.079 444.286 147.772 440.072L129.022 379.396C127.351 373.992 127.627 368.051 129.787 362.879C131.947 357.707 135.815 353.728 140.54 351.818L240.949 311.229C259.745 303.658 280.4 304.923 298.381 314.747C316.362 324.572 330.202 342.152 336.864 363.633C338.534 369.037 338.258 374.978 336.098 380.15C333.938 385.322 330.07 389.3 325.345 391.211L171.884 453.246C169.868 454.063 167.744 454.481 165.605 454.482Z" fill="white"/>
<path d="M298.763 334.876L208.855 370.954C207.588 371.463 206.018 370.104 205.348 367.92C204.678 365.737 205.162 363.554 206.429 363.046L296.337 326.968C297.603 326.46 299.173 327.818 299.843 330.002C300.513 332.185 300.03 334.37 298.763 334.876Z" fill="#E6E6E6"/>
<path d="M305.716 357.546L215.808 393.624C214.541 394.133 212.971 392.774 212.302 390.59C211.632 388.407 212.115 386.224 213.382 385.716L303.29 349.638C304.556 349.13 306.126 350.488 306.796 352.672C307.466 354.855 306.982 357.038 305.716 357.546Z" fill="#E6E6E6"/>
<path d="M196.687 383.289C197.652 386.4 198.121 389.685 198.072 392.986C198.053 394.496 197.922 396.002 197.681 397.488C196.915 402.287 195.054 406.769 192.287 410.482C189.52 414.195 185.945 417.006 181.924 418.632C177.902 420.258 173.576 420.64 169.384 419.74C165.192 418.841 161.281 416.691 158.048 413.509C157.722 413.189 157.404 412.86 157.095 412.52C154.454 409.626 152.421 406.085 151.148 402.165C149.875 398.244 149.395 394.044 149.743 389.88C150.092 385.717 151.26 381.698 153.161 378.124C155.061 374.551 157.645 371.516 160.717 369.248C163.789 366.98 167.271 365.536 170.901 365.027C174.531 364.517 178.214 364.954 181.675 366.305C185.136 367.656 188.285 369.886 190.885 372.827C193.485 375.769 195.468 379.345 196.687 383.289Z" fill="#E4E4E4"/>
<path d="M174.86 396.751C177.417 396.751 179.49 394.38 179.49 391.455C179.49 388.531 177.417 386.16 174.86 386.16C172.303 386.16 170.23 388.531 170.23 391.455C170.23 394.38 172.303 396.751 174.86 396.751Z" fill="#FD6584"/>
<path d="M157.094 412.519C158.282 409.364 159.687 404.551 162.941 406.303C164.549 407.1 167.428 409.522 168.597 406.705L177.751 384.789C177.925 384.381 178.168 384.016 178.467 383.716C178.765 383.416 179.113 383.188 179.49 383.044C179.867 382.9 180.265 382.844 180.661 382.879C181.057 382.914 181.443 383.039 181.797 383.247L198.071 392.985C198.052 394.496 197.921 396.002 197.68 397.487L158.047 413.508L157.094 412.519Z" fill="#3F3D56"/>
<path d="M161.818 347.798C160.673 347.288 159.639 346.498 158.79 345.483C157.941 344.467 157.297 343.251 156.903 341.92C156.509 340.589 156.375 339.175 156.511 337.779C156.646 336.382 157.048 335.036 157.687 333.836L136.969 249.557L155.147 247.385L169.796 330.912C171.487 332.274 172.683 334.298 173.156 336.601C173.63 338.904 173.348 341.326 172.365 343.407C171.381 345.489 169.765 347.085 167.821 347.895C165.877 348.704 163.741 348.669 161.818 347.798Z" fill="#FFB6B6"/>
<path d="M133.907 203.293C133.907 203.293 129.47 203.475 131.664 213.937C133.419 222.312 139.868 274.854 144.909 285.33C143.82 286.452 143.089 287.956 142.83 289.605C142.57 291.255 142.799 292.957 143.478 294.442L163.567 284.965C165.236 279.667 163.944 274.857 162.046 274.431L159.699 259.108L156.24 207.703L137.113 203.096L133.907 203.293Z" fill="#282135"/>
<path d="M314.875 425.04L287.092 426.357C286.498 426.386 285.907 426.262 285.361 425.992C284.816 425.723 284.331 425.316 283.942 424.802C283.559 424.301 283.28 423.707 283.126 423.065C282.972 422.423 282.947 421.749 283.053 421.095C285.185 407.798 284.564 394.115 281.239 381.142C280.982 380.15 281.034 379.087 281.386 378.134C281.738 377.181 282.368 376.397 283.169 375.916C294.549 369.153 305.212 368.811 314.861 374.895C315.366 375.209 315.806 375.646 316.149 376.174C316.492 376.703 316.73 377.311 316.847 377.955C319.358 392.111 319.96 406.623 318.632 420.988C318.54 422.068 318.109 423.075 317.418 423.82C316.728 424.565 315.824 424.999 314.875 425.04Z" fill="#282135"/>
<path d="M313.701 404.244L292.458 405.25C292.196 405.263 291.934 405.216 291.688 405.113C291.442 405.01 291.216 404.853 291.023 404.65C290.83 404.447 290.674 404.203 290.564 403.931C290.454 403.659 290.391 403.365 290.381 403.065C290.37 402.766 290.411 402.467 290.501 402.186C290.591 401.904 290.729 401.646 290.907 401.426C291.084 401.205 291.298 401.027 291.536 400.901C291.774 400.775 292.031 400.704 292.293 400.692L313.536 399.686C313.798 399.673 314.059 399.72 314.305 399.823C314.551 399.926 314.777 400.084 314.97 400.286C315.162 400.489 315.318 400.734 315.428 401.005C315.538 401.277 315.601 401.571 315.612 401.87C315.622 402.17 315.582 402.468 315.491 402.75C315.401 403.031 315.264 403.289 315.086 403.51C314.909 403.73 314.695 403.908 314.458 404.034C314.22 404.16 313.963 404.231 313.701 404.244Z" fill="white"/>
<path d="M313.411 396.25L292.167 397.256C291.638 397.281 291.123 397.065 290.734 396.655C290.344 396.245 290.113 395.676 290.092 395.071C290.07 394.467 290.259 393.877 290.617 393.432C290.975 392.987 291.473 392.723 292.002 392.698L313.246 391.691C313.774 391.666 314.29 391.882 314.679 392.292C315.068 392.702 315.299 393.272 315.321 393.876C315.343 394.481 315.154 395.07 314.795 395.515C314.437 395.961 313.939 396.225 313.411 396.25Z" fill="white"/>
<path d="M823.008 176.468L795.437 172.332C794.848 172.245 794.284 172.007 793.786 171.635C793.289 171.263 792.872 170.767 792.567 170.184C792.264 169.616 792.077 168.976 792.022 168.314C791.966 167.651 792.042 166.982 792.244 166.358C796.333 153.674 797.766 140.071 796.429 126.639C796.324 125.611 796.535 124.574 797.024 123.704C797.513 122.833 798.251 122.184 799.112 121.867C811.336 117.429 821.893 119.177 830.49 127.058C830.941 127.467 831.309 127.983 831.568 128.571C831.827 129.158 831.971 129.804 831.989 130.461C832.347 144.9 830.771 159.316 827.316 173.209C827.063 174.256 826.488 175.163 825.696 175.763C824.904 176.362 823.95 176.612 823.008 176.468Z" fill="#282135"/>
<path d="M824.961 155.746L803.88 152.584C803.62 152.545 803.369 152.448 803.143 152.298C802.916 152.148 802.717 151.949 802.557 151.712C802.398 151.474 802.281 151.203 802.213 150.914C802.145 150.624 802.127 150.322 802.161 150.025C802.196 149.728 802.28 149.442 802.411 149.183C802.542 148.923 802.716 148.696 802.924 148.513C803.132 148.331 803.369 148.197 803.622 148.119C803.875 148.041 804.139 148.021 804.398 148.06L825.48 151.223C826.004 151.301 826.48 151.615 826.802 152.095C827.124 152.575 827.267 153.181 827.198 153.781C827.129 154.381 826.855 154.925 826.435 155.294C826.016 155.662 825.485 155.825 824.961 155.746Z" fill="white"/>
<path d="M825.871 147.815L804.79 144.653C804.53 144.614 804.279 144.518 804.051 144.368C803.824 144.219 803.625 144.019 803.465 143.782C803.305 143.544 803.187 143.273 803.119 142.983C803.051 142.693 803.034 142.391 803.068 142.094C803.102 141.796 803.187 141.51 803.318 141.25C803.449 140.99 803.624 140.763 803.832 140.58C804.04 140.398 804.278 140.264 804.531 140.187C804.784 140.109 805.049 140.09 805.308 140.129L826.39 143.292C826.65 143.33 826.901 143.427 827.128 143.576C827.356 143.726 827.555 143.925 827.715 144.163C827.875 144.4 827.992 144.672 828.06 144.961C828.128 145.251 828.146 145.553 828.112 145.851C828.078 146.148 827.993 146.435 827.862 146.695C827.73 146.954 827.556 147.182 827.348 147.364C827.139 147.547 826.902 147.681 826.649 147.758C826.395 147.835 826.131 147.855 825.871 147.815Z" fill="white"/>
<path d="M753.058 43.267C757.893 43.267 761.812 38.7848 761.812 33.2556C761.812 27.7264 757.893 23.2441 753.058 23.2441C748.224 23.2441 744.305 27.7264 744.305 33.2556C744.305 38.7848 748.224 43.267 753.058 43.267Z" fill="#3F3D56"/>
<path d="M215.336 326.267C220.17 326.267 224.089 321.785 224.089 316.256C224.089 310.726 220.17 306.244 215.336 306.244C210.501 306.244 206.582 310.726 206.582 316.256C206.582 321.785 210.501 326.267 215.336 326.267Z" fill="#3F3D56"/>
<path d="M436.921 272.016C436.457 272.016 436.012 271.805 435.684 271.43C435.356 271.055 435.172 270.547 435.172 270.016V223.732C435.172 223.202 435.356 222.693 435.684 222.318C436.012 221.943 436.457 221.732 436.921 221.732C437.384 221.732 437.829 221.943 438.157 222.318C438.485 222.693 438.669 223.202 438.669 223.732V270.016C438.669 270.547 438.485 271.055 438.157 271.43C437.829 271.805 437.384 272.016 436.921 272.016Z" fill="white"/>
<path d="M457.158 248.875H416.69C416.226 248.875 415.782 248.664 415.454 248.289C415.126 247.914 414.941 247.405 414.941 246.875C414.941 246.345 415.126 245.836 415.454 245.461C415.782 245.086 416.226 244.875 416.69 244.875H457.158C457.621 244.875 458.066 245.086 458.394 245.461C458.722 245.836 458.906 246.345 458.906 246.875C458.906 247.405 458.722 247.914 458.394 248.289C458.066 248.664 457.621 248.875 457.158 248.875Z" fill="white"/>
</g>
<defs>
<clipPath id="clip0_744_14755">
<rect width="865" height="623.836" fill="white" transform="translate(0.5 0.732422)"/>
</clipPath>
</defs>
</svg>
