<?xml version="1.0" standalone="no"?>
<!DOCTYPE svg PUBLIC "-//W3C//DTD SVG 20010904//EN"
 "http://www.w3.org/TR/2001/REC-SVG-20010904/DTD/svg10.dtd">
<svg version="1.0" xmlns="http://www.w3.org/2000/svg"
 width="1640.000000pt" height="924.000000pt" viewBox="0 0 1640.000000 924.000000"
 preserveAspectRatio="xMidYMid meet">

<g transform="translate(0.000000,924.000000) scale(0.100000,-0.100000)"
fill="#000000" stroke="none">
<path d="M8173 6462 c-53 -8 -53 -10 -53 -500 l0 -453 25 -24 c33 -33 70 -32
106 4 l29 29 0 445 c0 427 -1 445 -20 469 -20 26 -48 36 -87 30z"/>
<path d="M7445 6378 c-27 -16 -44 -39 -45 -62 0 -32 220 -849 236 -873 31 -48
105 -37 132 19 11 24 1 71 -102 455 -101 377 -117 430 -141 450 -29 25 -50 28
-80 11z"/>
<path d="M8903 6380 c-12 -5 -27 -18 -33 -29 -15 -29 -230 -838 -230 -867 0
-30 41 -74 69 -74 34 0 69 21 80 49 25 60 221 819 221 853 0 28 -6 42 -26 57
-29 23 -46 25 -81 11z"/>
<path d="M7195 5125 c-41 -14 -180 -151 -801 -792 l-235 -241 3 -544 c3 -530
4 -544 24 -588 32 -68 88 -126 152 -157 l57 -28 1805 0 1805 0 49 24 c66 33
122 91 155 160 l26 56 2 540 3 540 -493 503 c-270 277 -505 511 -522 520 -27
15 -121 17 -1010 19 -816 2 -987 0 -1020 -12z m2348 -542 l385 -398 -493 -3
-493 -2 -4 -123 c-6 -155 -28 -219 -102 -292 -59 -59 -119 -91 -200 -106 -36
-6 -211 -9 -479 -7 l-422 3 -57 27 c-81 38 -149 105 -184 181 -25 54 -29 78
-34 187 l-5 125 -492 5 -493 5 383 397 382 396 962 1 961 1 385 -397z m-2233
-606 c0 -146 117 -330 258 -405 113 -60 130 -62 632 -61 397 0 463 2 521 17
184 48 331 214 362 408 l12 74 492 0 493 0 0 -452 c0 -285 -4 -467 -11 -491
-5 -21 -24 -53 -40 -72 -62 -71 77 -66 -1851 -63 l-1736 3 -39 31 c-21 16 -48
50 -60 74 -23 44 -23 47 -23 507 l0 463 495 0 495 0 0 -33z"/>
<path d="M6670 1835 c0 -168 1 -175 20 -175 19 0 20 7 20 90 0 105 15 130 75
130 47 0 55 -20 55 -129 0 -86 1 -91 21 -91 20 0 21 4 17 105 -2 89 -6 107
-23 124 -31 29 -67 33 -108 12 l-37 -19 0 64 c0 57 -2 64 -20 64 -19 0 -20 -7
-20 -175z"/>
<path d="M6958 1998 c-8 -21 2 -38 22 -38 19 0 30 17 23 38 -3 6 -13 12 -23
12 -10 0 -20 -6 -22 -12z"/>
<path d="M8570 1835 c0 -168 1 -175 20 -175 18 0 20 7 20 84 0 100 19 136 74
136 50 0 56 -13 56 -122 0 -91 1 -98 20 -98 19 0 20 7 20 95 0 111 -11 140
-57 156 -28 9 -40 8 -73 -9 l-40 -19 0 63 c0 57 -2 64 -20 64 -19 0 -20 -7
-20 -175z"/>
<path d="M9630 1835 c0 -168 1 -175 20 -175 19 0 20 7 20 90 0 105 15 130 75
130 47 0 55 -20 55 -129 0 -86 1 -91 21 -91 20 0 21 4 17 105 -2 89 -6 107
-23 124 -31 29 -67 33 -108 12 l-37 -19 0 64 c0 57 -2 64 -20 64 -19 0 -20 -7
-20 -175z"/>
<path d="M5840 1825 c0 -158 1 -165 20 -165 18 0 20 8 22 138 l3 137 85 -137
c68 -111 89 -138 108 -138 22 0 22 1 22 165 0 157 -1 165 -20 165 -18 0 -20
-8 -22 -127 l-3 -128 -80 127 c-71 113 -83 128 -107 128 l-28 0 0 -165z"/>
<path d="M6497 1963 c-4 -3 -7 -17 -7 -30 0 -16 -6 -23 -20 -23 -11 0 -20 -7
-20 -15 0 -8 9 -15 20 -15 18 0 20 -7 20 -82 0 -106 13 -132 64 -136 48 -4 67
3 60 22 -4 11 -14 13 -36 9 -41 -8 -48 6 -48 105 l0 82 40 0 c29 0 40 4 40 15
0 11 -11 15 -40 15 -38 0 -40 2 -40 30 0 28 -17 40 -33 23z"/>
<path d="M7760 1940 c0 -25 -4 -30 -25 -30 -16 0 -25 -6 -25 -15 0 -9 9 -15
25 -15 25 0 25 0 25 -94 0 -113 10 -129 74 -124 28 2 41 8 41 18 0 11 -9 14
-32 12 -43 -4 -53 18 -53 112 l0 75 42 3 c57 4 62 26 6 30 -39 3 -43 6 -46 31
-5 38 -32 36 -32 -3z"/>
<path d="M7527 1930 c-4 -16 -13 -19 -55 -17 -41 2 -55 -2 -76 -22 -30 -28
-34 -75 -10 -109 14 -20 14 -24 0 -38 -18 -18 -21 -40 -6 -49 16 -10 12 -23
-10 -30 -29 -9 -28 -70 3 -89 61 -39 166 -26 192 24 20 39 19 47 -10 75 -20
21 -34 25 -80 25 -42 0 -57 4 -62 16 -8 21 13 34 55 34 60 0 108 80 70 118 -9
9 -8 16 5 30 21 23 22 38 3 45 -8 3 -16 -2 -19 -13z m-29 -62 c7 -7 12 -24 12
-38 0 -33 -17 -50 -49 -50 -46 0 -67 32 -51 75 8 20 17 25 43 25 18 0 38 -5
45 -12z m30 -214 c17 -5 15 -29 -4 -48 -24 -24 -120 -22 -134 3 -12 24 -4 48
18 54 17 4 97 -2 120 -9z"/>
<path d="M6253 1909 c-17 -5 -41 -22 -53 -37 -19 -23 -21 -37 -18 -96 3 -60 7
-71 31 -92 42 -36 119 -34 157 4 72 72 36 208 -60 226 -14 2 -39 0 -57 -5z
m97 -56 c18 -23 21 -37 17 -76 -5 -56 -29 -87 -69 -87 -44 0 -66 16 -77 57
-13 45 1 107 27 122 34 20 79 13 102 -16z"/>
<path d="M7180 1913 c-8 -3 -25 -15 -37 -26 l-23 -20 0 21 c0 13 -6 22 -15 22
-13 0 -15 -21 -15 -125 0 -100 3 -125 14 -125 10 0 15 22 18 90 5 103 20 130
73 130 49 0 55 -14 55 -122 0 -91 1 -98 20 -98 19 0 20 7 20 104 0 84 -3 108
-17 124 -19 21 -68 35 -93 25z"/>
<path d="M7993 1905 c-81 -35 -97 -169 -26 -225 37 -29 113 -28 148 3 47 40
53 150 9 198 -9 10 -33 23 -53 29 -44 12 -39 12 -78 -5z m100 -42 c42 -48 24
-156 -29 -169 -37 -9 -76 6 -92 36 -17 32 -9 105 13 130 23 26 86 27 108 3z"/>
<path d="M8374 1909 c-41 -12 -59 -50 -42 -87 10 -19 29 -32 73 -47 62 -21 78
-42 55 -70 -16 -20 -70 -19 -99 1 -17 13 -25 14 -34 4 -21 -20 28 -50 83 -50
74 0 114 46 87 100 -9 18 -30 31 -72 45 -52 18 -60 24 -60 45 0 22 5 25 37 28
20 2 46 -2 57 -7 14 -8 22 -8 27 0 17 29 -58 54 -112 38z"/>
<path d="M8923 1909 c-17 -5 -41 -22 -53 -37 -19 -23 -21 -37 -18 -96 3 -60 7
-71 31 -92 42 -36 119 -34 157 4 72 72 36 208 -60 226 -14 2 -39 0 -57 -5z
m97 -56 c18 -23 21 -37 17 -76 -5 -56 -29 -87 -69 -87 -44 0 -66 16 -77 57
-13 45 1 107 27 122 34 20 79 13 102 -16z"/>
<path d="M9974 1906 c-48 -21 -64 -51 -64 -124 0 -57 3 -67 29 -93 25 -24 38
-29 80 -29 39 0 56 5 78 25 23 21 26 26 13 34 -10 7 -21 5 -35 -9 -44 -42
-125 -12 -125 45 0 25 1 25 85 25 l85 0 0 38 c0 49 -22 79 -68 92 -45 12 -40
12 -78 -4z m93 -38 c6 -7 13 -23 16 -35 5 -22 3 -23 -64 -23 -58 0 -69 3 -69
17 0 30 31 53 70 53 21 0 42 -6 47 -12z"/>
<path d="M10442 1909 c-63 -19 -94 -127 -57 -199 20 -39 43 -50 103 -50 39 0
53 5 72 26 19 20 22 27 11 33 -8 6 -20 2 -32 -10 -42 -42 -129 -11 -129 46 0
25 1 25 85 25 l85 0 0 36 c0 48 -15 73 -55 90 -39 16 -38 16 -83 3z m92 -51
c29 -41 21 -48 -54 -48 -75 0 -83 7 -54 48 21 31 87 31 108 0z"/>
<path d="M6960 1785 c0 -118 1 -125 20 -125 19 0 20 7 20 125 0 118 -1 125
-20 125 -19 0 -20 -7 -20 -125z"/>
<path d="M9130 1899 c0 -6 12 -63 27 -126 26 -110 28 -114 52 -111 22 3 27 12
50 96 14 50 29 92 33 92 5 0 8 -5 8 -12 0 -7 11 -49 25 -95 23 -74 28 -83 50
-83 20 0 25 7 35 53 6 28 19 85 29 125 18 68 18 72 1 72 -14 0 -22 -20 -42
-102 -14 -57 -28 -96 -31 -88 -3 8 -17 54 -32 103 -20 70 -29 87 -45 87 -14 0
-22 -13 -35 -57 -9 -32 -22 -78 -29 -102 -14 -51 -19 -47 -36 29 -25 112 -31
130 -45 130 -8 0 -15 -5 -15 -11z"/>
<path d="M10190 1785 c0 -118 1 -125 20 -125 19 0 20 7 20 90 0 78 3 93 21
111 13 13 30 19 47 17 19 -2 28 2 30 15 5 27 -61 23 -88 -5 l-20 -22 0 22 c0
13 -6 22 -15 22 -13 0 -15 -21 -15 -125z"/>
</g>
</svg>
