<?xml version="1.0" standalone="no"?>
<!DOCTYPE svg PUBLIC "-//W3C//DTD SVG 20010904//EN"
 "http://www.w3.org/TR/2001/REC-SVG-20010904/DTD/svg10.dtd">
<svg version="1.0" xmlns="http://www.w3.org/2000/svg"
 width="940.000000pt" height="788.000000pt" viewBox="0 0 940.000000 788.000000"
 preserveAspectRatio="xMidYMid meet">

<g transform="translate(0.000000,788.000000) scale(0.100000,-0.100000)"
fill="#000000" stroke="none">
<path d="M4331 5728 c-76 -37 -152 -122 -204 -225 -25 -51 -56 -124 -68 -163
l-23 -70 -88 0 -88 0 0 129 c0 104 -3 133 -16 145 -23 24 -555 24 -578 0 -13
-12 -16 -41 -16 -145 l0 -129 -58 0 c-89 0 -148 -25 -213 -89 -96 -96 -89 -10
-89 -1156 0 -1152 -6 -1070 89 -1166 98 -97 -59 -90 1741 -87 l1575 3 50 27
c60 31 104 77 136 138 l24 45 0 1035 0 1035 -24 45 c-32 61 -76 107 -136 138
l-50 27 -466 3 -467 3 -32 92 c-66 189 -152 316 -245 362 -37 19 -65 20 -375
23 -328 2 -336 2 -379 -20z m696 -109 c63 -23 124 -112 181 -261 l30 -78 -539
0 -539 0 25 67 c49 130 122 234 190 271 27 15 613 16 652 1z m-1637 -244 c0
-98 -1 -105 -20 -105 -19 0 -20 7 -20 105 0 98 1 105 20 105 19 0 20 -7 20
-105z m100 0 l0 -105 -25 0 -25 0 0 105 0 105 25 0 25 0 0 -105z m90 0 l0
-105 -25 0 -25 0 0 105 0 105 25 0 25 0 0 -105z m90 0 c0 -98 -1 -105 -20
-105 -19 0 -20 7 -20 105 0 98 1 105 20 105 19 0 20 -7 20 -105z m100 0 l0
-105 -25 0 -25 0 0 105 0 105 25 0 25 0 0 -105z m2532 -247 c22 -13 51 -41 64
-64 l24 -41 0 -1003 0 -1003 -24 -41 c-13 -23 -42 -51 -64 -64 l-40 -22 -1562
0 -1562 0 -40 22 c-22 13 -51 41 -64 64 -21 36 -24 53 -24 152 l0 112 663 0
664 0 61 -25 c187 -76 375 -79 579 -10 l101 35 576 0 576 0 0 30 0 30 -520 0
c-286 0 -520 2 -520 4 0 2 40 43 88 92 103 104 157 190 204 324 32 92 33 100
32 250 0 142 -3 162 -28 240 -16 47 -44 115 -63 152 -37 70 -152 214 -181 226
-10 4 75 9 188 12 203 5 205 5 208 28 l3 22 -241 0 -241 0 -37 25 c-92 63
-280 114 -417 114 -137 0 -325 -51 -417 -114 l-37 -25 -620 0 -621 0 0 185 c0
216 8 245 82 289 l43 26 1564 0 1563 0 40 -22z m-1426 -468 c101 -26 188 -69
267 -131 270 -215 346 -581 185 -892 -49 -96 -168 -221 -260 -275 -128 -76
-297 -110 -447 -91 -169 21 -299 85 -421 208 -132 133 -200 302 -200 501 0
115 19 200 66 297 97 202 286 349 505 392 83 16 221 12 305 -9z m-758 -120
c-105 -107 -183 -255 -215 -404 -18 -87 -13 -282 11 -371 9 -33 39 -107 67
-165 45 -90 64 -117 145 -199 52 -52 94 -96 94 -98 0 -2 -272 -3 -605 -3
l-605 0 0 650 0 650 583 0 583 0 -58 -60z"/>
<path d="M5540 4905 l0 -115 235 0 235 0 0 115 0 115 -235 0 -235 0 0 -115z
m420 5 l0 -70 -185 0 -185 0 0 70 0 70 185 0 185 0 0 -70z"/>
<path d="M5870 4625 l0 -25 185 0 185 0 0 25 0 25 -185 0 -185 0 0 -25z"/>
<path d="M4570 4486 c-124 -35 -241 -121 -312 -230 -132 -204 -101 -483 73
-657 255 -256 685 -188 849 135 47 93 67 209 52 309 -30 207 -184 384 -381
439 -76 21 -212 23 -281 4z m333 -99 c287 -142 350 -515 126 -740 -225 -225
-599 -159 -737 130 -36 77 -37 80 -37 198 0 114 2 123 32 188 36 76 116 166
181 204 82 49 147 64 259 60 94 -3 108 -7 176 -40z"/>
<path d="M4845 4226 c-46 -20 -67 -51 -73 -104 -6 -67 17 -108 74 -133 36 -16
50 -18 82 -10 119 33 138 200 27 247 -42 17 -71 17 -110 0z m131 -40 c29 -29
34 -41 34 -79 0 -35 -6 -51 -28 -75 -73 -78 -195 -29 -194 77 1 68 45 110 116
111 30 0 45 -7 72 -34z"/>
<path d="M1483 2042 c14 -15 17 -41 17 -145 0 -111 -2 -126 -17 -130 -10 -3 6
-5 35 -6 33 -1 51 3 47 9 -3 6 -12 10 -19 10 -29 0 -37 28 -34 125 l3 97 95
-120 c52 -67 98 -121 103 -122 4 0 7 65 7 144 0 129 2 145 18 149 9 3 -5 5
-33 6 -45 0 -48 -1 -31 -14 10 -8 23 -16 28 -17 5 -2 8 -45 6 -97 l-3 -93 -88
111 c-78 98 -92 111 -119 111 -30 0 -30 -1 -15 -18z"/>
<path d="M2910 2040 c0 -15 7 -20 25 -20 18 0 25 5 25 20 0 15 -7 20 -25 20
-18 0 -25 -5 -25 -20z"/>
<path d="M3028 2053 c9 -3 12 -42 12 -143 0 -101 -3 -140 -12 -143 -7 -3 10
-5 37 -5 28 0 44 2 38 5 -10 3 -13 43 -13 149 l0 144 -37 -1 c-21 0 -32 -3
-25 -6z"/>
<path d="M3408 2053 c9 -3 12 -42 12 -147 l0 -142 66 -2 c76 -3 104 10 124 57
24 60 -9 131 -70 146 -19 4 -31 1 -44 -14 -11 -12 -23 -21 -28 -21 -4 0 -8 29
-8 65 l0 65 -32 -1 c-18 0 -27 -3 -20 -6z m149 -133 c18 -35 16 -101 -3 -128
-17 -24 -62 -30 -82 -10 -7 7 -12 36 -12 65 0 44 4 56 28 78 32 30 52 29 69
-5z"/>
<path d="M3668 2053 c9 -3 12 -42 12 -143 0 -101 -3 -140 -12 -143 -7 -3 10
-5 37 -5 28 0 44 2 38 5 -10 3 -13 43 -13 149 l0 144 -37 -1 c-21 0 -32 -3
-25 -6z"/>
<path d="M4157 2054 c-17 -18 -6 -35 21 -32 16 2 27 9 27 18 0 16 -36 26 -48
14z"/>
<path d="M5543 2045 c-11 -8 -24 -30 -27 -49 -4 -19 -12 -37 -19 -39 -9 -4 -9
-6 1 -6 9 -1 12 -26 12 -90 0 -62 -4 -91 -12 -94 -7 -3 12 -5 42 -5 30 0 47 2
38 5 -16 4 -18 17 -18 93 0 84 1 89 23 93 l22 4 -23 2 c-21 1 -23 5 -20 43 4
49 23 60 39 24 16 -35 29 -33 29 4 0 27 -3 30 -33 30 -18 0 -42 -7 -54 -15z"/>
<path d="M6398 2053 c9 -3 12 -42 12 -143 0 -101 -3 -140 -12 -143 -7 -3 10
-5 37 -5 28 0 42 2 33 5 -15 4 -18 16 -18 69 0 60 2 67 32 94 25 23 35 27 50
19 15 -8 18 -22 18 -94 0 -57 -4 -85 -12 -88 -7 -3 10 -5 37 -5 28 0 44 2 38
5 -8 3 -13 26 -13 62 0 74 -15 115 -46 130 -35 16 -48 14 -69 -9 -29 -32 -35
-24 -35 45 l0 65 -32 -1 c-18 0 -27 -3 -20 -6z"/>
<path d="M6680 2040 c0 -15 7 -20 25 -20 18 0 25 5 25 20 0 15 -7 20 -25 20
-18 0 -25 -5 -25 -20z"/>
<path d="M6250 2000 c-7 -17 -20 -35 -29 -40 -14 -8 -14 -9 2 -10 15 0 17 -11
17 -83 0 -92 8 -107 55 -107 36 0 55 16 54 45 0 19 0 19 -9 -1 -12 -30 -28
-38 -45 -24 -11 9 -15 34 -15 91 l0 78 33 4 32 4 -32 1 c-31 2 -33 5 -33 37 0
43 -13 45 -30 5z"/>
<path d="M8140 2000 c-7 -17 -20 -35 -29 -40 -14 -8 -14 -9 2 -10 15 0 17 -11
17 -83 0 -92 8 -107 55 -107 36 0 55 16 54 45 0 19 0 19 -9 -1 -12 -30 -28
-38 -45 -24 -11 9 -15 34 -15 91 l0 78 33 4 32 4 -32 1 c-31 2 -33 5 -33 37 0
43 -13 45 -30 5z"/>
<path d="M5085 1980 c-14 -15 -26 -18 -60 -14 -81 12 -137 -46 -100 -103 16
-24 16 -26 -6 -49 -18 -19 -20 -26 -10 -38 9 -11 9 -19 0 -34 -29 -46 23 -77
111 -68 43 4 60 11 78 31 27 32 28 47 1 71 -15 14 -40 20 -95 22 -62 4 -73 7
-63 18 7 8 31 14 59 14 75 0 111 44 86 103 -6 13 -3 17 13 17 14 0 21 6 21 19
0 29 -15 33 -35 11z m-53 -37 c35 -31 16 -103 -27 -103 -42 0 -61 66 -28 102
20 22 31 23 55 1z m16 -189 c32 -9 30 -51 -4 -64 -38 -15 -75 -12 -96 7 -48
43 14 80 100 57z"/>
<path d="M1843 1950 c-53 -32 -68 -83 -39 -139 18 -33 54 -51 107 -51 113 0
139 160 32 201 -37 14 -65 11 -100 -11z m87 0 c41 -22 50 -122 13 -162 -23
-25 -68 -23 -87 4 -23 33 -21 109 5 142 22 28 39 32 69 16z"/>
<path d="M3854 1961 c-32 -14 -64 -60 -64 -93 0 -36 24 -84 49 -98 38 -20 100
-12 128 16 14 14 23 27 20 30 -3 3 -16 -6 -30 -20 -15 -14 -37 -26 -50 -26
-33 0 -67 40 -67 78 l0 32 75 0 c84 0 92 9 53 55 -25 28 -79 40 -114 26z m68
-18 c10 -9 18 -24 18 -35 0 -15 -8 -18 -50 -18 -56 0 -65 15 -30 50 24 24 38
25 62 3z"/>
<path d="M4352 1948 c-19 -19 -22 -20 -22 -5 0 11 -8 17 -22 17 -22 0 -23 -2
-20 -94 3 -84 1 -95 -15 -99 -10 -3 5 -5 32 -5 28 0 44 2 38 5 -9 3 -13 29
-13 78 0 66 2 74 25 89 53 35 65 19 65 -89 0 -62 -3 -74 -17 -78 -10 -3 7 -5
37 -5 30 0 47 2 38 5 -15 4 -18 16 -18 74 0 64 2 72 27 94 21 17 32 21 45 14
15 -8 18 -24 18 -94 0 -57 -4 -85 -12 -88 -7 -3 10 -5 37 -5 28 0 42 2 33 5
-15 4 -18 16 -18 79 0 89 -9 110 -51 119 -24 5 -36 2 -54 -15 l-24 -22 -27 21
c-34 27 -54 27 -82 -1z"/>
<path d="M5205 1958 c-37 -20 -55 -52 -55 -96 0 -62 40 -102 104 -102 45 0 86
24 86 50 0 5 -11 -2 -25 -15 -42 -43 -96 -29 -115 30 -6 19 -9 39 -5 45 3 5
40 10 81 10 41 0 74 2 74 5 0 2 -5 16 -12 30 -21 46 -88 68 -133 43z m79 -20
c27 -38 20 -48 -34 -48 -56 0 -65 15 -30 50 26 26 45 25 64 -2z"/>
<path d="M5698 1954 c-65 -35 -73 -121 -17 -168 64 -54 170 -20 185 58 16 87
-87 155 -168 110z m92 -12 c45 -36 34 -155 -16 -168 -53 -13 -84 23 -84 97 0
29 7 47 25 64 29 30 45 31 75 7z"/>
<path d="M6830 1957 c-29 -14 -38 -51 -18 -74 7 -9 32 -24 54 -35 77 -34 86
-78 16 -78 -38 0 -62 16 -75 50 -3 8 -6 -1 -6 -20 l-1 -35 60 -3 c65 -3 95 7
105 38 10 32 -13 60 -71 86 -39 17 -54 29 -54 43 0 40 84 37 100 -3 8 -19 9
-18 9 9 1 29 -1 30 -47 32 -26 2 -58 -3 -72 -10z"/>
<path d="M7174 1961 c-32 -14 -64 -60 -64 -93 0 -36 24 -84 49 -98 38 -20 100
-12 128 16 14 14 23 27 20 30 -3 3 -16 -6 -30 -20 -15 -14 -37 -26 -50 -26
-33 0 -67 40 -67 78 l0 32 75 0 c84 0 92 9 53 55 -25 28 -79 40 -114 26z m68
-18 c10 -9 18 -24 18 -35 0 -15 -8 -18 -50 -18 -56 0 -65 15 -30 50 24 24 38
25 62 3z"/>
<path d="M7660 1963 c-53 -21 -79 -80 -60 -137 14 -42 48 -66 95 -66 44 0 71
13 86 43 10 19 8 19 -18 -5 -16 -16 -39 -28 -52 -28 -32 0 -71 43 -71 80 l0
30 75 0 c84 0 92 9 53 55 -23 26 -78 40 -108 28z m57 -11 c6 -4 16 -20 22 -35
l11 -27 -55 0 c-60 0 -61 1 -44 33 19 35 41 45 66 29z"/>
<path d="M7935 1950 c-22 -24 -35 -26 -35 -5 0 8 -9 15 -20 15 -19 0 -20 -7
-20 -94 0 -82 -2 -95 -17 -99 -10 -3 7 -5 37 -5 30 0 47 2 38 5 -15 4 -18 16
-18 72 0 58 3 71 23 89 27 26 62 29 71 6 12 -30 7 -162 -6 -167 -7 -3 10 -5
37 -5 28 0 42 2 33 5 -15 4 -18 17 -18 83 0 73 -2 80 -26 99 -33 26 -56 27
-79 1z"/>
<path d="M2180 1930 c0 -36 16 -39 32 -5 16 36 65 35 78 -1 19 -48 14 -54 -41
-54 -66 0 -89 -13 -89 -50 0 -52 65 -77 115 -44 23 15 25 15 25 0 0 -12 9 -16
38 -15 20 1 29 3 20 6 -15 4 -18 16 -18 79 0 97 -15 114 -100 114 l-60 0 0
-30z m120 -98 c0 -20 -8 -32 -29 -45 -28 -16 -30 -16 -52 2 -21 16 -22 22 -11
45 10 22 18 26 52 26 37 0 40 -2 40 -28z"/>
<path d="M2450 1860 c28 -55 53 -100 56 -100 5 0 64 124 85 178 8 20 6 22 -24
21 -29 0 -30 -1 -10 -9 l22 -9 -26 -60 c-15 -34 -30 -61 -33 -61 -4 0 -21 31
-36 70 -26 63 -32 70 -57 70 l-27 0 50 -100z"/>
<path d="M2670 1930 c0 -36 16 -39 32 -5 21 46 78 27 78 -27 0 -27 -2 -28 -50
-28 -60 0 -95 -27 -85 -63 14 -46 80 -64 117 -30 17 15 18 15 18 0 0 -13 9
-17 38 -17 20 0 32 4 26 8 -7 4 -13 42 -16 85 -4 96 -15 107 -100 107 -58 0
-58 0 -58 -30z m110 -100 c0 -57 -73 -77 -86 -24 -8 33 12 54 52 54 31 0 34
-3 34 -30z"/>
<path d="M2910 1866 c0 -66 -4 -96 -12 -99 -7 -3 10 -5 37 -5 28 0 44 2 38 5
-9 3 -13 33 -13 99 0 94 0 94 -25 94 -25 0 -25 0 -25 -94z"/>
<path d="M3170 1930 c0 -37 22 -40 38 -5 8 16 20 25 35 25 31 0 47 -18 47 -52
0 -27 -2 -28 -48 -28 -81 0 -117 -45 -72 -90 24 -24 77 -26 102 -3 17 15 18
15 18 0 0 -13 9 -17 38 -16 20 1 29 3 20 6 -15 4 -18 17 -18 82 0 99 -11 111
-98 111 l-62 0 0 -30z m120 -99 c0 -37 -40 -67 -70 -51 -22 12 -27 49 -8 68 7
7 27 12 45 12 30 0 33 -3 33 -29z"/>
<path d="M4158 1866 c3 -84 1 -95 -15 -99 -10 -3 7 -5 37 -5 30 0 47 2 38 5
-16 4 -18 17 -18 99 0 91 -1 94 -22 94 -22 0 -23 -2 -20 -94z"/>
<path d="M4680 1930 c0 -37 14 -38 36 -5 30 46 84 24 84 -34 0 -19 -6 -21 -53
-21 -59 0 -87 -19 -87 -58 0 -26 35 -52 70 -52 14 0 36 7 48 16 20 14 22 14
22 0 0 -12 10 -16 38 -15 20 1 29 3 20 6 -15 4 -18 17 -18 82 0 99 -11 111
-98 111 l-62 0 0 -30z m120 -99 c0 -20 -8 -34 -25 -45 -34 -22 -65 -6 -65 34
0 31 10 38 58 39 29 1 32 -2 32 -28z"/>
<path d="M5930 1866 c0 -66 -4 -96 -12 -99 -7 -3 12 -5 42 -5 30 0 45 3 33 5
-21 4 -23 10 -23 67 0 56 3 65 30 91 l30 29 11 -32 c15 -44 39 -42 39 3 0 33
-2 35 -34 35 -18 0 -39 -7 -46 -15 -7 -8 -16 -15 -21 -15 -5 0 -9 7 -9 15 0 8
-9 15 -20 15 -19 0 -20 -7 -20 -94z"/>
<path d="M6680 1866 c0 -66 -4 -96 -12 -99 -7 -3 10 -5 37 -5 28 0 42 2 33 5
-16 4 -18 17 -18 99 0 87 -1 94 -20 94 -19 0 -20 -7 -20 -94z"/>
<path d="M7400 1860 c28 -55 53 -100 56 -100 5 0 64 124 85 178 8 20 6 22 -24
21 -29 0 -30 -1 -10 -9 l22 -9 -26 -60 c-15 -34 -30 -61 -33 -61 -4 0 -21 31
-36 70 -26 63 -32 70 -57 70 l-27 0 50 -100z"/>
</g>
</svg>
