<?xml version="1.0" standalone="no"?>
<!DOCTYPE svg PUBLIC "-//W3C//DTD SVG 20010904//EN"
 "http://www.w3.org/TR/2001/REC-SVG-20010904/DTD/svg10.dtd">
<svg version="1.0" xmlns="http://www.w3.org/2000/svg"
 width="940.000000pt" height="788.000000pt" viewBox="0 0 940.000000 788.000000"
 preserveAspectRatio="xMidYMid meet">

<g transform="translate(0.000000,788.000000) scale(0.100000,-0.100000)"
fill="#000000" stroke="none">
<path d="M4331 5728 c-76 -37 -152 -122 -204 -225 -25 -51 -56 -124 -68 -163
l-23 -70 -88 0 -88 0 0 129 c0 104 -3 133 -16 145 -23 24 -555 24 -578 0 -13
-12 -16 -41 -16 -145 l0 -129 -58 0 c-89 0 -148 -25 -213 -89 -96 -96 -89 -10
-89 -1156 0 -1152 -6 -1070 89 -1166 98 -97 -59 -90 1741 -87 l1575 3 50 27
c60 31 104 77 136 138 l24 45 0 1035 0 1035 -24 45 c-32 61 -76 107 -136 138
l-50 27 -466 3 -467 3 -32 92 c-66 189 -152 316 -245 362 -37 19 -65 20 -375
23 -328 2 -336 2 -379 -20z m696 -109 c63 -23 124 -112 181 -261 l30 -78 -539
0 -539 0 25 67 c49 130 122 234 190 271 27 15 613 16 652 1z m-1637 -244 c0
-98 -1 -105 -20 -105 -19 0 -20 7 -20 105 0 98 1 105 20 105 19 0 20 -7 20
-105z m100 0 l0 -105 -25 0 -25 0 0 105 0 105 25 0 25 0 0 -105z m90 0 l0
-105 -25 0 -25 0 0 105 0 105 25 0 25 0 0 -105z m90 0 c0 -98 -1 -105 -20
-105 -19 0 -20 7 -20 105 0 98 1 105 20 105 19 0 20 -7 20 -105z m100 0 l0
-105 -25 0 -25 0 0 105 0 105 25 0 25 0 0 -105z m2532 -247 c22 -13 51 -41 64
-64 l24 -41 0 -1003 0 -1003 -24 -41 c-13 -23 -42 -51 -64 -64 l-40 -22 -1562
0 -1562 0 -40 22 c-22 13 -51 41 -64 64 -21 36 -24 53 -24 152 l0 112 663 0
664 0 61 -25 c187 -76 375 -79 579 -10 l101 35 576 0 576 0 0 30 0 30 -520 0
c-286 0 -520 2 -520 4 0 2 40 43 88 92 103 104 157 190 204 324 32 92 33 100
32 250 0 142 -3 162 -28 240 -16 47 -44 115 -63 152 -37 70 -152 214 -181 226
-10 4 75 9 188 12 203 5 205 5 208 28 l3 22 -241 0 -241 0 -37 25 c-92 63
-280 114 -417 114 -137 0 -325 -51 -417 -114 l-37 -25 -620 0 -621 0 0 185 c0
216 8 245 82 289 l43 26 1564 0 1563 0 40 -22z m-1426 -468 c101 -26 188 -69
267 -131 270 -215 346 -581 185 -892 -49 -96 -168 -221 -260 -275 -128 -76
-297 -110 -447 -91 -169 21 -299 85 -421 208 -132 133 -200 302 -200 501 0
115 19 200 66 297 97 202 286 349 505 392 83 16 221 12 305 -9z m-758 -120
c-105 -107 -183 -255 -215 -404 -18 -87 -13 -282 11 -371 9 -33 39 -107 67
-165 45 -90 64 -117 145 -199 52 -52 94 -96 94 -98 0 -2 -272 -3 -605 -3
l-605 0 0 650 0 650 583 0 583 0 -58 -60z"/>
<path d="M5540 4905 l0 -115 235 0 235 0 0 115 0 115 -235 0 -235 0 0 -115z
m420 5 l0 -70 -185 0 -185 0 0 70 0 70 185 0 185 0 0 -70z"/>
<path d="M5870 4625 l0 -25 185 0 185 0 0 25 0 25 -185 0 -185 0 0 -25z"/>
<path d="M4570 4486 c-124 -35 -241 -121 -312 -230 -132 -204 -101 -483 73
-657 255 -256 685 -188 849 135 47 93 67 209 52 309 -30 207 -184 384 -381
439 -76 21 -212 23 -281 4z m333 -99 c287 -142 350 -515 126 -740 -225 -225
-599 -159 -737 130 -36 77 -37 80 -37 198 0 114 2 123 32 188 36 76 116 166
181 204 82 49 147 64 259 60 94 -3 108 -7 176 -40z"/>
<path d="M4845 4226 c-46 -20 -67 -51 -73 -104 -6 -67 17 -108 74 -133 36 -16
50 -18 82 -10 119 33 138 200 27 247 -42 17 -71 17 -110 0z m131 -40 c29 -29
34 -41 34 -79 0 -35 -6 -51 -28 -75 -73 -78 -195 -29 -194 77 1 68 45 110 116
111 30 0 45 -7 72 -34z"/>
<path d="M2920 2051 c0 -6 5 -13 10 -16 6 -4 10 -60 10 -135 0 -114 -2 -129
-17 -133 -10 -3 7 -5 37 -6 50 0 53 1 36 14 -10 8 -23 16 -28 17 -5 2 -7 48
-6 103 l3 99 95 -119 95 -119 3 146 c2 143 3 147 25 151 12 2 -3 5 -33 5 -50
1 -53 0 -36 -13 10 -8 23 -16 28 -17 5 -2 8 -44 6 -94 l-3 -91 -88 108 c-69
85 -93 109 -113 109 -13 0 -24 -4 -24 -9z"/>
<path d="M3620 2040 c0 -15 7 -20 25 -20 18 0 25 5 25 20 0 15 -7 20 -25 20
-18 0 -25 -5 -25 -20z"/>
<path d="M5717 2054 c-17 -18 -6 -35 21 -32 16 2 27 9 27 18 0 16 -36 26 -48
14z"/>
<path d="M5833 2053 c15 -4 17 -19 17 -143 0 -124 -2 -139 -17 -143 -10 -3 7
-5 37 -5 30 0 47 2 38 5 -16 4 -18 20 -18 149 l0 144 -37 -1 c-21 -1 -30 -3
-20 -6z"/>
<path d="M6208 2053 c9 -3 12 -42 12 -146 l0 -142 70 -3 c67 -3 73 -1 100 27
52 51 34 147 -32 170 -28 10 -36 9 -60 -9 l-28 -21 0 66 0 65 -37 -1 c-21 0
-32 -3 -25 -6z m146 -125 c10 -13 16 -43 16 -74 0 -60 -22 -87 -67 -82 -27 3
-28 5 -31 67 -3 54 0 67 19 87 28 30 44 30 63 2z"/>
<path d="M6473 2053 c15 -4 17 -19 17 -143 0 -124 -2 -139 -17 -143 -10 -3 7
-5 37 -5 30 0 47 2 38 5 -16 4 -18 20 -18 149 l0 144 -37 -1 c-21 -1 -30 -3
-20 -6z"/>
<path d="M4551 1982 c-16 -11 -44 -17 -79 -17 -44 0 -57 -4 -73 -24 -23 -29
-24 -59 -2 -83 15 -17 15 -20 -7 -44 -19 -19 -22 -28 -14 -42 8 -12 8 -22 1
-33 -35 -56 82 -92 163 -51 30 14 35 22 35 52 0 45 -28 60 -114 60 -55 0 -62
2 -51 15 7 9 29 15 52 15 40 0 77 14 90 34 12 17 9 61 -4 74 -9 9 -7 12 10 12
17 0 22 6 22 25 0 14 -1 25 -2 24 -2 0 -14 -8 -27 -17z m-41 -55 c13 -24 13
-30 0 -54 -29 -52 -80 -37 -80 23 0 36 24 67 48 62 9 -2 23 -15 32 -31z m11
-177 c27 -15 24 -45 -6 -58 -54 -25 -115 -8 -115 32 0 12 3 26 7 29 10 11 92
8 114 -3z"/>
<path d="M3290 1951 c-93 -49 -55 -191 51 -191 22 0 53 7 68 15 64 33 65 130
2 172 -41 28 -75 29 -121 4z m95 -16 c20 -19 25 -34 25 -72 0 -60 -21 -93 -59
-93 -69 0 -96 115 -41 170 26 26 46 25 75 -5z"/>
<path d="M3822 1948 c-19 -19 -22 -20 -22 -5 0 11 -8 17 -25 17 -25 0 -25 0
-25 -94 0 -66 -4 -96 -12 -99 -7 -3 10 -5 37 -5 28 0 44 2 38 5 -9 3 -13 29
-13 77 0 58 4 76 18 89 47 42 72 10 72 -92 0 -58 -3 -70 -17 -74 -10 -3 5 -5
32 -5 28 0 44 2 38 5 -9 3 -13 29 -13 78 0 65 3 76 22 89 29 20 54 20 62 0 3
-9 6 -49 6 -89 0 -62 -3 -74 -17 -78 -10 -3 7 -5 37 -5 30 0 47 2 38 5 -15 4
-18 17 -18 83 0 73 -2 80 -26 99 -34 27 -52 26 -80 0 l-23 -21 -27 21 c-34 27
-54 27 -82 -1z"/>
<path d="M4663 1950 c-35 -21 -54 -69 -46 -114 13 -68 125 -103 171 -53 12 13
22 27 22 32 0 4 -11 -4 -25 -19 -45 -48 -115 -22 -118 44 l-2 35 73 3 c60 2
72 6 72 20 -1 35 -48 72 -92 72 -13 0 -37 -9 -55 -20z m91 -12 c28 -39 21 -48
-39 -48 -47 0 -54 2 -48 18 18 52 61 67 87 30z"/>
<path d="M6660 1963 c-53 -21 -79 -80 -60 -137 14 -42 48 -66 95 -66 44 0 71
13 86 43 10 19 8 19 -18 -5 -16 -16 -39 -28 -52 -28 -32 0 -71 43 -71 80 l0
30 75 0 c84 0 92 9 53 55 -23 26 -78 40 -108 28z m57 -11 c6 -4 16 -20 22 -35
l11 -27 -55 0 c-60 0 -61 1 -44 33 19 35 41 45 66 29z"/>
<path d="M3620 1866 c0 -66 -4 -96 -12 -99 -7 -3 10 -5 37 -5 28 0 44 2 38 5
-9 3 -13 33 -13 99 0 94 0 94 -25 94 -25 0 -25 0 -25 -94z"/>
<path d="M4150 1930 c0 -36 16 -39 32 -5 16 36 65 35 78 -1 19 -48 14 -54 -41
-54 -66 0 -89 -13 -89 -50 0 -52 65 -77 115 -44 23 15 25 15 25 0 0 -12 9 -16
38 -15 20 1 29 3 20 6 -15 4 -18 16 -18 79 0 97 -15 114 -100 114 l-60 0 0
-30z m120 -98 c0 -20 -8 -32 -29 -45 -28 -16 -30 -16 -52 2 -21 16 -22 22 -11
45 10 22 18 26 52 26 37 0 40 -2 40 -28z"/>
<path d="M4980 1930 c0 -37 14 -38 36 -5 30 46 84 24 84 -34 0 -19 -6 -21 -53
-21 -59 0 -87 -19 -87 -58 0 -26 35 -52 70 -52 14 0 36 7 48 16 20 14 22 14
22 0 0 -12 10 -16 38 -15 20 1 29 3 20 6 -15 4 -18 17 -18 82 0 99 -11 111
-98 111 l-62 0 0 -30z m120 -99 c0 -20 -8 -34 -25 -45 -34 -22 -65 -6 -65 34
0 31 10 38 58 39 29 1 32 -2 32 -28z"/>
<path d="M5254 1860 c28 -55 53 -100 56 -100 4 0 66 132 86 184 5 12 -1 16
-22 16 -25 0 -26 -1 -11 -12 16 -12 15 -18 -12 -73 l-29 -60 -33 72 c-29 62
-38 72 -60 73 l-26 0 51 -100z"/>
<path d="M5470 1930 c0 -36 16 -39 32 -5 16 36 65 35 78 -1 19 -48 14 -54 -41
-54 -66 0 -89 -13 -89 -50 0 -52 65 -77 115 -44 23 15 25 15 25 0 0 -12 9 -16
38 -15 20 1 29 3 20 6 -15 4 -18 16 -18 79 0 97 -15 114 -100 114 l-60 0 0
-30z m120 -98 c0 -20 -8 -32 -29 -45 -28 -16 -30 -16 -52 2 -21 16 -22 22 -11
45 10 22 18 26 52 26 37 0 40 -2 40 -28z"/>
<path d="M5718 1866 c3 -84 1 -95 -15 -99 -10 -3 7 -5 37 -5 30 0 47 2 38 5
-16 4 -18 17 -18 99 0 91 -1 94 -22 94 -22 0 -23 -2 -20 -94z"/>
<path d="M5980 1930 c0 -36 16 -39 32 -5 21 46 78 27 78 -27 0 -27 -2 -28 -50
-28 -60 0 -95 -27 -85 -63 14 -46 80 -64 117 -30 17 15 18 15 18 0 0 -13 9
-17 38 -17 20 0 32 4 26 8 -7 4 -13 42 -16 85 -4 96 -15 107 -100 107 -58 0
-58 0 -58 -30z m110 -100 c0 -57 -73 -77 -86 -24 -8 33 12 54 52 54 31 0 34
-3 34 -30z"/>
</g>
</svg>
